<mxfile host="Electron" modified="2024-02-19T05:59:55.955Z" agent="Mozilla/5.0 (Windows NT 10.0; Win64; x64) AppleWebKit/537.36 (KHTML, like Gecko) draw.io/23.0.2 Chrome/120.0.6099.109 Electron/28.1.0 Safari/537.36" etag="eTtD9J4GuY0F6gD4xw4v" version="23.0.2" type="device">
  <diagram name="After" id="Ha8s6_4_4nTsxysomdbX">
    <mxGraphModel dx="1849" dy="592" grid="1" gridSize="10" guides="1" tooltips="1" connect="1" arrows="1" fold="1" page="1" pageScale="1" pageWidth="827" pageHeight="1169" math="0" shadow="0">
      <root>
        <mxCell id="0" />
        <mxCell id="1" parent="0" />
        <mxCell id="jCmkxCOtXwXN6SEzMLhW-37" value="" style="rounded=0;whiteSpace=wrap;html=1;hachureGap=4;fontFamily=VK Sans Display;fontSource=https%3A%2F%2Ffonts.googleapis.com%2Fcss%3Ffamily%3DArchitects%2BDaughter;fontSize=12;fontColor=#212121;fillColor=none;strokeColor=none;" vertex="1" parent="1">
          <mxGeometry x="-827" y="1" width="840" height="520" as="geometry" />
        </mxCell>
        <mxCell id="6Icv8xA98AjqYxmJFfoj-1" value="&lt;font style=&quot;font-size: 16px;&quot;&gt;&lt;br&gt;&lt;/font&gt;" style="rounded=1;whiteSpace=wrap;html=1;strokeColor=#7C8A9A;strokeWidth=1;fontColor=#212121;fillColor=none;dashed=1;arcSize=12;absoluteArcSize=1;align=center;verticalAlign=top;" parent="1" vertex="1">
          <mxGeometry x="-677" y="146" width="180" height="230" as="geometry" />
        </mxCell>
        <mxCell id="U4OIBK4hdGN6eQNpAXDu-29" value="kld-jumphost-vm" style="shape=image;verticalLabelPosition=middle;labelBackgroundColor=default;verticalAlign=middle;aspect=fixed;imageAspect=0;image=data:image/svg+xml,PHN2ZyB4bWxucz0iaHR0cDovL3d3dy53My5vcmcvMjAwMC9zdmciIGZpbGw9Im5vbmUiIHZpZXdCb3g9IjAgMCAyOCAyOCIgaGVpZ2h0PSIyOCIgd2lkdGg9IjI4Ij4mI3hhOzxwYXRoIGZpbGw9IiMwMDc3RkYiIGQ9Ik0yLjkxNjY2IDE0QzIuOTE2NjYgOC43NzUyNiAyLjkxNjY2IDYuMTYyODkgNC41Mzk3NyA0LjUzOTc3QzYuMTYyODkgMi45MTY2NiA4Ljc3NTI2IDIuOTE2NjYgMTQgMi45MTY2NkMxOS4yMjQ3IDIuOTE2NjYgMjEuODM3MSAyLjkxNjY2IDIzLjQ2MDIgNC41Mzk3N0MyNS4wODMzIDYuMTYyODkgMjUuMDgzMyA4Ljc3NTI2IDI1LjA4MzMgMTRDMjUuMDgzMyAxNS4xNjI2IDI1LjA2MDIgMTYuNDc3NiAyNS4wMzA4IDE3LjUzOThDMjUuMDE1OSAxOC4wNzU5IDI0LjU3NTYgMTguNSAyNC4wMzkzIDE4LjVDMjMuNDczMyAxOC41IDIzLjAxNDkgMTguMDI5MiAyMy4wMTIxIDE3LjQ2MzFDMjMuMDExMSAxNy4yNTUxIDIzLjAwOTIgMTcuMDM4NiAyMy4wMDczIDE2LjgyM0MyMy4wMDQgMTYuNDM5MiAyMy4wMDA3IDE2LjA1ODMgMjMuMDAyMyAxNS43MzM0QzIzLjAwNDIgMTUuMzUwMyAyMi42OTM2IDE1LjAzOTEgMjIuMzEwNiAxNS4wMzkxSDUuNjg5MzlDNS4zMDYzNCAxNS4wMzkxIDQuOTk1NzcgMTUuMzUwMyA0Ljk5NzY4IDE1LjczMzRDNS4wMDY0MiAxNy40ODQzIDUuMDQxMjIgMTguNzc4IDUuMTc5MTQgMTkuODAzOEM1LjM1MTA1IDIxLjA4MjQgNS42NDgxNCAyMS42Mjk3IDYuMDA5MjMgMjEuOTkwN0M2LjM3MDMxIDIyLjM1MTggNi45MTc1NSAyMi42NDg5IDguMTk2MTggMjIuODIwOEM4LjQ0NzY1IDIyLjg1NDYgOC43MTUyMSAyMi44ODIzIDkuMDAxNjUgMjIuOTA0OEM5LjU1ODQxIDIyLjk0ODYgMTAgMjMuNDAzMSAxMCAyMy45NjE2QzEwIDI0LjU1MTEgOS41MDk0IDI1LjAyNjQgOC45MjE1IDI0Ljk4MjZDNi44NjE1MyAyNC44Mjg4IDUuNTIwMTggMjQuNDQwNiA0LjUzOTc3IDIzLjQ2MDJDMi45MTY2NiAyMS44MzcxIDIuOTE2NjYgMTkuMjI0NyAyLjkxNjY2IDE0Wk0yMy4wMDIzIDEyLjI2NjZDMjMuMDA0MiAxMi42NDk2IDIyLjY5MzYgMTIuOTYwOSAyMi4zMTA2IDEyLjk2MDlINS42ODkzOUM1LjMwNjM0IDEyLjk2MDkgNC45OTU3NyAxMi42NDk2IDQuOTk3NjggMTIuMjY2NkM1LjAwNjQyIDEwLjUxNTYgNS4wNDEyMiA5LjIyMjAxIDUuMTc5MTQgOC4xOTYxOEM1LjM1MTA1IDYuOTE3NTUgNS42NDgxNCA2LjM3MDMxIDYuMDA5MjMgNi4wMDkyM0M2LjM3MDMxIDUuNjQ4MTQgNi45MTc1NSA1LjM1MTA1IDguMTk2MTggNS4xNzkxNEM5LjUzNDU5IDQuOTk5MiAxMS4zMjg5IDQuOTk0NzggMTQgNC45OTQ3OEMxNi42NzExIDQuOTk0NzggMTguNDY1NCA0Ljk5OTIgMTkuODAzOCA1LjE3OTE0QzIxLjA4MjQgNS4zNTEwNSAyMS42Mjk3IDUuNjQ4MTQgMjEuOTkwNyA2LjAwOTIzQzIyLjM1MTggNi4zNzAzMSAyMi42NDg5IDYuOTE3NTUgMjIuODIwOCA4LjE5NjE4QzIyLjk1ODggOS4yMjIwMSAyMi45OTM2IDEwLjUxNTYgMjMuMDAyMyAxMi4yNjY2Wk0xNS4xMjQgMjQuNjU4N0wxNi45MTQyIDIwLjQ0MjlDMTYuOTcyNSAyMC4zMTE2IDE3LjA2NzcgMjAuMTUwNSAxNy4yMzIzIDIwLjA0OTZDMTcuMzgzMiAxOS45NTUxIDE3LjU1MTMgMTkuOTI2MyAxNy43MDMyIDE5LjkyNjNDMTcuODM4OCAxOS45MjYzIDE3Ljk4NCAxOS45NTEgMTguMTE5NCAyMC4wMjM3QzE4LjI1NTkgMjAuMDk2OSAxOC4zNTkyIDIwLjIwNjYgMTguNDI3NCAyMC4zMzgxQzE4LjU2OTkgMjAuNTk1MyAxOC41NTExIDIwLjg3MSAxOC40NDA4IDIxLjExM0wxNS45MjI3IDI2Ljg4OTJDMTUuODU4NCAyNy4wMzYxIDE1Ljc2MjEgMjcuMTcwNSAxNS42MjYyIDI3LjI3MjRMMTUuNjIxMiAyNy4yNzYxQzE1LjQ2OTYgMjcuMzg2NCAxNS4yOTYyIDI3LjQyNTYgMTUuMTMyNSAyNy40MjU2QzE0Ljk2NDYgMjcuNDI1NiAxNC43OTgxIDI3LjM4MDkgMTQuNjUxNyAyNy4yNzgxQzE0LjUwODYgMjcuMTc3NiAxNC40MTA4IDI3LjA0MDEgMTQuMzQ1IDI2Ljg5NTJMMTQuMzQyNCAyNi44ODk2TDExLjg0NDcgMjEuMTc4QzExLjc0MTggMjAuOTI4MiAxMS42OTIxIDIwLjYyOSAxMS44MzIxIDIwLjM0ODhDMTEuOTg2NiAyMC4wMzk5IDEyLjI4MzMgMTkuOTI2MyAxMi41NzAzIDE5LjkyNjNDMTIuNzMzIDE5LjkyNjMgMTIuOTAxNCAxOS45NjI4IDEzLjA1MjMgMjAuMDYwNEMxMy4yMDQ1IDIwLjE1ODYgMTMuMzA3MyAyMC4yOTg0IDEzLjM3MTQgMjAuNDUxMkwxMy4zNzE4IDIwLjQ1MjFMMTUuMTI0IDI0LjY1ODdaTTIxLjI4OTUgMjQuMjEwMVYyNi41NTc0QzIxLjI4OTUgMjYuNzkwNCAyMS4yMDUzIDI3LjAwNTEgMjEuMDM3MSAyNy4xNzMzQzIwLjg2ODkgMjcuMzQxNSAyMC42NTQzIDI3LjQyNTYgMjAuNDIxMiAyNy40MjU2QzIwLjE4ODIgMjcuNDI1NiAxOS45NzM1IDI3LjM0MTUgMTkuODA1MyAyNy4xNzMzQzE5LjYzNzEgMjcuMDA1MSAxOS41NTMgMjYuNzkwNCAxOS41NTMgMjYuNTU3NFYyMC43OTQ2QzE5LjU1MyAyMC41NjQxIDE5LjYzMiAyMC4zNDMgMTkuODEwNCAyMC4xNzM1QzE5Ljk3NzkgMjAuMDA4OCAyMC4xOTA1IDE5LjkyNjMgMjAuNDIxMiAxOS45MjYzQzIwLjc1NzcgMTkuOTI2MyAyMS4wMjI3IDIwLjA5OTcgMjEuMTgyMyAyMC4zNzkxTDIxLjE4ODIgMjAuMzg5NUwyMy4zMzQyIDI0LjY4ODNMMjUuNDI0NCAyMC4zOTE0TDI1LjQzMTQgMjAuMzc5MUMyNS41OTExIDIwLjA5OTcgMjUuODU2MSAxOS45MjYzIDI2LjE5MjUgMTkuOTI2M0MyNi40MjMyIDE5LjkyNjMgMjYuNjM1OSAyMC4wMDg4IDI2LjgwMzMgMjAuMTczNkMyNi45ODE4IDIwLjM0MyAyNy4wNjA4IDIwLjU2NDEgMjcuMDYwOCAyMC43OTQ2VjI2LjU1NzRDMjcuMDYwOCAyNi43OTcxIDI2Ljk2ODggMjcuMDEyOCAyNi43OTUxIDI3LjE3ODFDMjYuNjMxOCAyNy4zMzkgMjYuNDIzNiAyNy40MjU2IDI2LjE5MjUgMjcuNDI1NkMyNS45NTk1IDI3LjQyNTYgMjUuNzQ0OCAyNy4zNDE1IDI1LjU3NjYgMjcuMTczM0MyNS40MDg0IDI3LjAwNTEgMjUuMzI0MyAyNi43OTA0IDI1LjMyNDMgMjYuNTU3NFYyNC4xNTg1TDI0LjA2MDUgMjYuNzM0M0wyNC4wNDYyIDI2Ljc1NjJDMjMuODgxMiAyNy4wMDg1IDIzLjYyNzEgMjcuMTcwMiAyMy4zMDY5IDI3LjE3MDJDMjMuMTQ0MyAyNy4xNzAyIDIyLjk4MDQgMjcuMTMxMiAyMi44MzM0IDI3LjAzNjJDMjIuNjg4MyAyNi45NDI1IDIyLjU4NiAyNi44MTE1IDIyLjUxNjUgMjYuNjY4OEwyMS4yODk1IDI0LjIxMDFaIiBjbGlwLXJ1bGU9ImV2ZW5vZGQiIGZpbGwtcnVsZT0iZXZlbm9kZCIvPiYjeGE7PC9zdmc+;fontSize=16;strokeWidth=0;fontFamily=VK Sans Display;fontSource=https%3A%2F%2Ffonts.googleapis.com%2Fcss%3Ffamily%3DArchitects%2BDaughter;labelPosition=right;align=left;" parent="1" vertex="1">
          <mxGeometry x="-677" y="146" width="40" height="40" as="geometry" />
        </mxCell>
        <mxCell id="jCmkxCOtXwXN6SEzMLhW-1" value="Floating IP" style="shape=image;verticalLabelPosition=bottom;labelBackgroundColor=default;verticalAlign=top;aspect=fixed;imageAspect=0;image=data:image/svg+xml,PHN2ZyB4bWxucz0iaHR0cDovL3d3dy53My5vcmcvMjAwMC9zdmciIGZpbGw9Im5vbmUiIHZpZXdCb3g9IjAgMCAyOCAyOCIgaGVpZ2h0PSIyOCIgd2lkdGg9IjI4Ij4mI3hhOzxwYXRoIGZpbGw9IiMwMDc3RkYiIGQ9Ik05LjExNDYzIDguODk1ODRDOC41MTA1NyA4Ljg5NTg0IDguMDIwODggOS4zODU1MyA4LjAyMDg4IDkuOTg5NTlWMTguMDEwNEM4LjAyMDg4IDE4LjYxNDUgOC41MTA1NyAxOS4xMDQyIDkuMTE0NjMgMTkuMTA0MkM5LjcxODY5IDE5LjEwNDIgMTAuMjA4NCAxOC42MTQ1IDEwLjIwODQgMTguMDEwNFY5Ljk4OTU5QzEwLjIwODQgOS4zODU1MyA5LjcxODY5IDguODk1ODQgOS4xMTQ2MyA4Ljg5NTg0WiIvPiYjeGE7PHBhdGggZmlsbD0iIzAwNzdGRiIgZD0iTTE0LjA3NDEgOC44OTU4NEMxMy4yNjg3IDguODk1ODQgMTIuNjE1OCA5LjU0ODc2IDEyLjYxNTggMTAuMzU0MlYxOC4wMTA0QzEyLjYxNTggMTguNjE0NSAxMy4xMDU1IDE5LjEwNDIgMTMuNzA5NSAxOS4xMDQyQzE0LjMxMzYgMTkuMTA0MiAxNC44MDMzIDE4LjYxNDUgMTQuODAzMyAxOC4wMTA0VjE1Ljc1SDE2LjkxNzlDMTcuNDYyMyAxNS43NSAxNy45NTgxIDE1LjY2NzQgMTguNDA1MyAxNS41MDIxQzE4Ljg1MjYgMTUuMzI3MSAxOS4yMzY2IDE1LjA4ODkgMTkuNTU3NCAxNC43ODc1QzE5Ljg3ODMgMTQuNDc2NCAyMC4xMjYyIDE0LjExMTggMjAuMzAxMiAxMy42OTM4QzIwLjQ3NjIgMTMuMjc1NyAyMC41NjM3IDEyLjgxODggMjAuNTYzNyAxMi4zMjI5QzIwLjU2MzcgMTEuODI3MSAyMC40NzYyIDExLjM3MDEgMjAuMzAxMiAxMC45NTIxQzIwLjEyNjIgMTAuNTM0IDE5Ljg3ODMgMTAuMTc0MyAxOS41NTc0IDkuODcyOTNDMTkuMjM2NiA5LjU2MTgyIDE4Ljg1MjYgOS4zMjM2MiAxOC40MDUzIDkuMTU4MzRDMTcuOTU4MSA4Ljk4MzM0IDE3LjQ2MjMgOC44OTU4NCAxNi45MTc5IDguODk1ODRIMTQuMDc0MVpNMTcuODk0OSAxMy4zMjkyQzE3LjYzMjQgMTMuNTgyIDE3LjI4MjQgMTMuNzA4MyAxNi44NDQ5IDEzLjcwODNIMTQuODAzM1YxMC45Mzc1SDE2Ljg0NDlDMTcuMjgyNCAxMC45Mzc1IDE3LjYzMjQgMTEuMDY4OCAxNy44OTQ5IDExLjMzMTNDMTguMTY3MiAxMS41ODQgMTguMzAzMyAxMS45MTQ2IDE4LjMwMzMgMTIuMzIyOUMxOC4zMDMzIDEyLjczMTMgMTguMTY3MiAxMy4wNjY3IDE3Ljg5NDkgMTMuMzI5MloiIGNsaXAtcnVsZT0iZXZlbm9kZCIgZmlsbC1ydWxlPSJldmVub2RkIi8+JiN4YTs8cGF0aCBmaWxsPSIjMDA3N0ZGIiBkPSJNMi4zMzMzNCAxMS42NjY3QzIuMzMzMzQgOC4zOTk3IDIuMzMzMzQgNi43NjYyMiAyLjk2OTE0IDUuNTE4NEMzLjUyODQgNC40MjA3OSA0LjQyMDc5IDMuNTI4NCA1LjUxODQgMi45NjkxNEM2Ljc2NjIyIDIuMzMzMzQgOC4zOTk3IDIuMzMzMzQgMTEuNjY2NyAyLjMzMzM0SDE2LjMzMzNDMTkuNjAwMyAyLjMzMzM0IDIxLjIzMzggMi4zMzMzNCAyMi40ODE2IDIuOTY5MTRDMjMuNTc5MiAzLjUyODQgMjQuNDcxNiA0LjQyMDc5IDI1LjAzMDkgNS41MTg0QzI1LjY2NjcgNi43NjYyMiAyNS42NjY3IDguMzk5NyAyNS42NjY3IDExLjY2NjdWMTYuMzMzM0MyNS42NjY3IDE5LjYwMDMgMjUuNjY2NyAyMS4yMzM4IDI1LjAzMDkgMjIuNDgxNkMyNC40NzE2IDIzLjU3OTIgMjMuNTc5MiAyNC40NzE2IDIyLjQ4MTYgMjUuMDMwOUMyMS4yMzM4IDI1LjY2NjcgMTkuNjAwMyAyNS42NjY3IDE2LjMzMzMgMjUuNjY2N0gxMS42NjY3QzguMzk5NyAyNS42NjY3IDYuNzY2MjIgMjUuNjY2NyA1LjUxODQgMjUuMDMwOUM0LjQyMDc5IDI0LjQ3MTYgMy41Mjg0IDIzLjU3OTIgMi45NjkxNCAyMi40ODE2QzIuMzMzMzQgMjEuMjMzOCAyLjMzMzM0IDE5LjYwMDMgMi4zMzMzNCAxNi4zMzMzVjExLjY2NjdaTTExLjY2NjcgNC41MjA4NEgxNi4zMzMzQzE4LjAwMjkgNC41MjA4NCAxOS4xMjM2IDQuNTIyNTQgMTkuOTg2NSA0LjU5MzA1QzIwLjgyNCA0LjY2MTQ3IDIxLjIyNDQgNC43ODM2MyAyMS40ODg1IDQuOTE4MjJDMjIuMTc0NSA1LjI2Nzc1IDIyLjczMjMgNS44MjU1IDIzLjA4MTggNi41MTE1QzIzLjIxNjQgNi43NzU2NCAyMy4zMzg1IDcuMTc2MDQgMjMuNDA3IDguMDEzNDlDMjMuNDc3NSA4Ljg3NjQ3IDIzLjQ3OTIgOS45OTcwOSAyMy40NzkyIDExLjY2NjdWMTYuMzMzM0MyMy40NzkyIDE4LjAwMjkgMjMuNDc3NSAxOS4xMjM2IDIzLjQwNyAxOS45ODY1QzIzLjMzODUgMjAuODI0IDIzLjIxNjQgMjEuMjI0NCAyMy4wODE4IDIxLjQ4ODVDMjIuNzMyMyAyMi4xNzQ1IDIyLjE3NDUgMjIuNzMyMyAyMS40ODg1IDIzLjA4MThDMjEuMjI0NCAyMy4yMTY0IDIwLjgyNCAyMy4zMzg1IDE5Ljk4NjUgMjMuNDA3QzE5LjEyMzYgMjMuNDc3NSAxOC4wMDI5IDIzLjQ3OTIgMTYuMzMzMyAyMy40NzkySDExLjY2NjdDOS45OTcwOSAyMy40NzkyIDguODc2NDcgMjMuNDc3NSA4LjAxMzQ5IDIzLjQwN0M3LjE3NjA0IDIzLjMzODUgNi43NzU2NCAyMy4yMTY0IDYuNTExNSAyMy4wODE4QzUuODI1NSAyMi43MzIzIDUuMjY3NzUgMjIuMTc0NSA0LjkxODIyIDIxLjQ4ODVDNC43ODM2MyAyMS4yMjQ0IDQuNjYxNDcgMjAuODI0IDQuNTkzMDUgMTkuOTg2NUM0LjUyMjU0IDE5LjEyMzYgNC41MjA4NCAxOC4wMDI5IDQuNTIwODQgMTYuMzMzM1YxMS42NjY3QzQuNTIwODQgOS45OTcwOSA0LjUyMjU0IDguODc2NDcgNC41OTMwNSA4LjAxMzQ5QzQuNjYxNDcgNy4xNzYwNCA0Ljc4MzYzIDYuNzc1NjQgNC45MTgyMiA2LjUxMTVDNS4yNjc3NSA1LjgyNTUgNS44MjU1IDUuMjY3NzUgNi41MTE1IDQuOTE4MjJDNi43NzU2NCA0Ljc4MzYzIDcuMTc2MDQgNC42NjE0NyA4LjAxMzQ5IDQuNTkzMDVDOC44NzY0NyA0LjUyMjU0IDkuOTk3MDkgNC41MjA4NCAxMS42NjY3IDQuNTIwODRaIiBjbGlwLXJ1bGU9ImV2ZW5vZGQiIGZpbGwtcnVsZT0iZXZlbm9kZCIvPiYjeGE7PC9zdmc+;fontSize=16;fontFamily=VK Sans Display;align=center;strokeWidth=0;fontSource=https%3A%2F%2Ffonts.googleapis.com%2Fcss%3Ffamily%3DArchitects%2BDaughter;labelPosition=center;" vertex="1" parent="1">
          <mxGeometry x="-603" y="206" width="32" height="32" as="geometry" />
        </mxCell>
        <mxCell id="jCmkxCOtXwXN6SEzMLhW-30" style="edgeStyle=none;shape=connector;rounded=1;orthogonalLoop=1;jettySize=auto;html=1;exitX=1;exitY=0.5;exitDx=0;exitDy=0;entryX=0;entryY=0.5;entryDx=0;entryDy=0;labelBackgroundColor=#FFFFFF;strokeColor=#7C8A9A;strokeWidth=2;align=center;verticalAlign=middle;spacing=8;fontFamily=VK Sans Display;fontSize=12;fontColor=#212121;startArrow=none;startFill=0;endArrow=open;endFill=0;curved=0;" edge="1" parent="1" source="jCmkxCOtXwXN6SEzMLhW-2" target="jCmkxCOtXwXN6SEzMLhW-20">
          <mxGeometry relative="1" as="geometry">
            <Array as="points">
              <mxPoint x="-427" y="310" />
              <mxPoint x="-427" y="261" />
            </Array>
          </mxGeometry>
        </mxCell>
        <mxCell id="jCmkxCOtXwXN6SEzMLhW-32" value="ICMP(PING)" style="edgeLabel;html=1;align=center;verticalAlign=middle;resizable=0;points=[];fontSize=12;fontFamily=VK Sans Display;fontColor=#212121;textOpacity=80;" vertex="1" connectable="0" parent="jCmkxCOtXwXN6SEzMLhW-30">
          <mxGeometry x="-0.2882" y="-1" relative="1" as="geometry">
            <mxPoint x="-7" y="-12" as="offset" />
          </mxGeometry>
        </mxCell>
        <mxCell id="jCmkxCOtXwXN6SEzMLhW-2" value="Jumphost VM IP" style="shape=image;verticalLabelPosition=bottom;labelBackgroundColor=default;verticalAlign=top;aspect=fixed;imageAspect=0;image=data:image/svg+xml,PHN2ZyB4bWxucz0iaHR0cDovL3d3dy53My5vcmcvMjAwMC9zdmciIGZpbGw9Im5vbmUiIHZpZXdCb3g9IjAgMCAyOCAyOCIgaGVpZ2h0PSIyOCIgd2lkdGg9IjI4Ij4mI3hhOzxwYXRoIGZpbGw9IiMwMDc3RkYiIGQ9Ik05LjExNDYzIDguODk1ODRDOC41MTA1NyA4Ljg5NTg0IDguMDIwODggOS4zODU1MyA4LjAyMDg4IDkuOTg5NTlWMTguMDEwNEM4LjAyMDg4IDE4LjYxNDUgOC41MTA1NyAxOS4xMDQyIDkuMTE0NjMgMTkuMTA0MkM5LjcxODY5IDE5LjEwNDIgMTAuMjA4NCAxOC42MTQ1IDEwLjIwODQgMTguMDEwNFY5Ljk4OTU5QzEwLjIwODQgOS4zODU1MyA5LjcxODY5IDguODk1ODQgOS4xMTQ2MyA4Ljg5NTg0WiIvPiYjeGE7PHBhdGggZmlsbD0iIzAwNzdGRiIgZD0iTTE0LjA3NDEgOC44OTU4NEMxMy4yNjg3IDguODk1ODQgMTIuNjE1OCA5LjU0ODc2IDEyLjYxNTggMTAuMzU0MlYxOC4wMTA0QzEyLjYxNTggMTguNjE0NSAxMy4xMDU1IDE5LjEwNDIgMTMuNzA5NSAxOS4xMDQyQzE0LjMxMzYgMTkuMTA0MiAxNC44MDMzIDE4LjYxNDUgMTQuODAzMyAxOC4wMTA0VjE1Ljc1SDE2LjkxNzlDMTcuNDYyMyAxNS43NSAxNy45NTgxIDE1LjY2NzQgMTguNDA1MyAxNS41MDIxQzE4Ljg1MjYgMTUuMzI3MSAxOS4yMzY2IDE1LjA4ODkgMTkuNTU3NCAxNC43ODc1QzE5Ljg3ODMgMTQuNDc2NCAyMC4xMjYyIDE0LjExMTggMjAuMzAxMiAxMy42OTM4QzIwLjQ3NjIgMTMuMjc1NyAyMC41NjM3IDEyLjgxODggMjAuNTYzNyAxMi4zMjI5QzIwLjU2MzcgMTEuODI3MSAyMC40NzYyIDExLjM3MDEgMjAuMzAxMiAxMC45NTIxQzIwLjEyNjIgMTAuNTM0IDE5Ljg3ODMgMTAuMTc0MyAxOS41NTc0IDkuODcyOTNDMTkuMjM2NiA5LjU2MTgyIDE4Ljg1MjYgOS4zMjM2MiAxOC40MDUzIDkuMTU4MzRDMTcuOTU4MSA4Ljk4MzM0IDE3LjQ2MjMgOC44OTU4NCAxNi45MTc5IDguODk1ODRIMTQuMDc0MVpNMTcuODk0OSAxMy4zMjkyQzE3LjYzMjQgMTMuNTgyIDE3LjI4MjQgMTMuNzA4MyAxNi44NDQ5IDEzLjcwODNIMTQuODAzM1YxMC45Mzc1SDE2Ljg0NDlDMTcuMjgyNCAxMC45Mzc1IDE3LjYzMjQgMTEuMDY4OCAxNy44OTQ5IDExLjMzMTNDMTguMTY3MiAxMS41ODQgMTguMzAzMyAxMS45MTQ2IDE4LjMwMzMgMTIuMzIyOUMxOC4zMDMzIDEyLjczMTMgMTguMTY3MiAxMy4wNjY3IDE3Ljg5NDkgMTMuMzI5MloiIGNsaXAtcnVsZT0iZXZlbm9kZCIgZmlsbC1ydWxlPSJldmVub2RkIi8+JiN4YTs8cGF0aCBmaWxsPSIjMDA3N0ZGIiBkPSJNMi4zMzMzNCAxMS42NjY3QzIuMzMzMzQgOC4zOTk3IDIuMzMzMzQgNi43NjYyMiAyLjk2OTE0IDUuNTE4NEMzLjUyODQgNC40MjA3OSA0LjQyMDc5IDMuNTI4NCA1LjUxODQgMi45NjkxNEM2Ljc2NjIyIDIuMzMzMzQgOC4zOTk3IDIuMzMzMzQgMTEuNjY2NyAyLjMzMzM0SDE2LjMzMzNDMTkuNjAwMyAyLjMzMzM0IDIxLjIzMzggMi4zMzMzNCAyMi40ODE2IDIuOTY5MTRDMjMuNTc5MiAzLjUyODQgMjQuNDcxNiA0LjQyMDc5IDI1LjAzMDkgNS41MTg0QzI1LjY2NjcgNi43NjYyMiAyNS42NjY3IDguMzk5NyAyNS42NjY3IDExLjY2NjdWMTYuMzMzM0MyNS42NjY3IDE5LjYwMDMgMjUuNjY2NyAyMS4yMzM4IDI1LjAzMDkgMjIuNDgxNkMyNC40NzE2IDIzLjU3OTIgMjMuNTc5MiAyNC40NzE2IDIyLjQ4MTYgMjUuMDMwOUMyMS4yMzM4IDI1LjY2NjcgMTkuNjAwMyAyNS42NjY3IDE2LjMzMzMgMjUuNjY2N0gxMS42NjY3QzguMzk5NyAyNS42NjY3IDYuNzY2MjIgMjUuNjY2NyA1LjUxODQgMjUuMDMwOUM0LjQyMDc5IDI0LjQ3MTYgMy41Mjg0IDIzLjU3OTIgMi45NjkxNCAyMi40ODE2QzIuMzMzMzQgMjEuMjMzOCAyLjMzMzM0IDE5LjYwMDMgMi4zMzMzNCAxNi4zMzMzVjExLjY2NjdaTTExLjY2NjcgNC41MjA4NEgxNi4zMzMzQzE4LjAwMjkgNC41MjA4NCAxOS4xMjM2IDQuNTIyNTQgMTkuOTg2NSA0LjU5MzA1QzIwLjgyNCA0LjY2MTQ3IDIxLjIyNDQgNC43ODM2MyAyMS40ODg1IDQuOTE4MjJDMjIuMTc0NSA1LjI2Nzc1IDIyLjczMjMgNS44MjU1IDIzLjA4MTggNi41MTE1QzIzLjIxNjQgNi43NzU2NCAyMy4zMzg1IDcuMTc2MDQgMjMuNDA3IDguMDEzNDlDMjMuNDc3NSA4Ljg3NjQ3IDIzLjQ3OTIgOS45OTcwOSAyMy40NzkyIDExLjY2NjdWMTYuMzMzM0MyMy40NzkyIDE4LjAwMjkgMjMuNDc3NSAxOS4xMjM2IDIzLjQwNyAxOS45ODY1QzIzLjMzODUgMjAuODI0IDIzLjIxNjQgMjEuMjI0NCAyMy4wODE4IDIxLjQ4ODVDMjIuNzMyMyAyMi4xNzQ1IDIyLjE3NDUgMjIuNzMyMyAyMS40ODg1IDIzLjA4MThDMjEuMjI0NCAyMy4yMTY0IDIwLjgyNCAyMy4zMzg1IDE5Ljk4NjUgMjMuNDA3QzE5LjEyMzYgMjMuNDc3NSAxOC4wMDI5IDIzLjQ3OTIgMTYuMzMzMyAyMy40NzkySDExLjY2NjdDOS45OTcwOSAyMy40NzkyIDguODc2NDcgMjMuNDc3NSA4LjAxMzQ5IDIzLjQwN0M3LjE3NjA0IDIzLjMzODUgNi43NzU2NCAyMy4yMTY0IDYuNTExNSAyMy4wODE4QzUuODI1NSAyMi43MzIzIDUuMjY3NzUgMjIuMTc0NSA0LjkxODIyIDIxLjQ4ODVDNC43ODM2MyAyMS4yMjQ0IDQuNjYxNDcgMjAuODI0IDQuNTkzMDUgMTkuOTg2NUM0LjUyMjU0IDE5LjEyMzYgNC41MjA4NCAxOC4wMDI5IDQuNTIwODQgMTYuMzMzM1YxMS42NjY3QzQuNTIwODQgOS45OTcwOSA0LjUyMjU0IDguODc2NDcgNC41OTMwNSA4LjAxMzQ5QzQuNjYxNDcgNy4xNzYwNCA0Ljc4MzYzIDYuNzc1NjQgNC45MTgyMiA2LjUxMTVDNS4yNjc3NSA1LjgyNTUgNS44MjU1IDUuMjY3NzUgNi41MTE1IDQuOTE4MjJDNi43NzU2NCA0Ljc4MzYzIDcuMTc2MDQgNC42NjE0NyA4LjAxMzQ5IDQuNTkzMDVDOC44NzY0NyA0LjUyMjU0IDkuOTk3MDkgNC41MjA4NCAxMS42NjY3IDQuNTIwODRaIiBjbGlwLXJ1bGU9ImV2ZW5vZGQiIGZpbGwtcnVsZT0iZXZlbm9kZCIvPiYjeGE7PC9zdmc+;fontSize=16;fontFamily=VK Sans Display;align=center;strokeWidth=0;fontSource=https%3A%2F%2Ffonts.googleapis.com%2Fcss%3Ffamily%3DArchitects%2BDaughter;labelPosition=center;" vertex="1" parent="1">
          <mxGeometry x="-603" y="296" width="32" height="32" as="geometry" />
        </mxCell>
        <mxCell id="jCmkxCOtXwXN6SEzMLhW-3" value="&lt;font style=&quot;font-size: 16px;&quot;&gt;&lt;br&gt;&lt;/font&gt;" style="rounded=1;whiteSpace=wrap;html=1;strokeColor=#7C8A9A;strokeWidth=1;fontColor=#212121;fillColor=none;dashed=1;arcSize=12;absoluteArcSize=1;align=center;verticalAlign=top;" vertex="1" parent="1">
          <mxGeometry x="-257" y="11" width="260" height="230" as="geometry" />
        </mxCell>
        <mxCell id="jCmkxCOtXwXN6SEzMLhW-4" value="kld-vm-1" style="shape=image;verticalLabelPosition=middle;labelBackgroundColor=default;verticalAlign=middle;aspect=fixed;imageAspect=0;image=data:image/svg+xml,PHN2ZyB4bWxucz0iaHR0cDovL3d3dy53My5vcmcvMjAwMC9zdmciIGZpbGw9Im5vbmUiIHZpZXdCb3g9IjAgMCAyOCAyOCIgaGVpZ2h0PSIyOCIgd2lkdGg9IjI4Ij4mI3hhOzxwYXRoIGZpbGw9IiMwMDc3RkYiIGQ9Ik0yLjkxNjY2IDE0QzIuOTE2NjYgOC43NzUyNiAyLjkxNjY2IDYuMTYyODkgNC41Mzk3NyA0LjUzOTc3QzYuMTYyODkgMi45MTY2NiA4Ljc3NTI2IDIuOTE2NjYgMTQgMi45MTY2NkMxOS4yMjQ3IDIuOTE2NjYgMjEuODM3MSAyLjkxNjY2IDIzLjQ2MDIgNC41Mzk3N0MyNS4wODMzIDYuMTYyODkgMjUuMDgzMyA4Ljc3NTI2IDI1LjA4MzMgMTRDMjUuMDgzMyAxNS4xNjI2IDI1LjA2MDIgMTYuNDc3NiAyNS4wMzA4IDE3LjUzOThDMjUuMDE1OSAxOC4wNzU5IDI0LjU3NTYgMTguNSAyNC4wMzkzIDE4LjVDMjMuNDczMyAxOC41IDIzLjAxNDkgMTguMDI5MiAyMy4wMTIxIDE3LjQ2MzFDMjMuMDExMSAxNy4yNTUxIDIzLjAwOTIgMTcuMDM4NiAyMy4wMDczIDE2LjgyM0MyMy4wMDQgMTYuNDM5MiAyMy4wMDA3IDE2LjA1ODMgMjMuMDAyMyAxNS43MzM0QzIzLjAwNDIgMTUuMzUwMyAyMi42OTM2IDE1LjAzOTEgMjIuMzEwNiAxNS4wMzkxSDUuNjg5MzlDNS4zMDYzNCAxNS4wMzkxIDQuOTk1NzcgMTUuMzUwMyA0Ljk5NzY4IDE1LjczMzRDNS4wMDY0MiAxNy40ODQzIDUuMDQxMjIgMTguNzc4IDUuMTc5MTQgMTkuODAzOEM1LjM1MTA1IDIxLjA4MjQgNS42NDgxNCAyMS42Mjk3IDYuMDA5MjMgMjEuOTkwN0M2LjM3MDMxIDIyLjM1MTggNi45MTc1NSAyMi42NDg5IDguMTk2MTggMjIuODIwOEM4LjQ0NzY1IDIyLjg1NDYgOC43MTUyMSAyMi44ODIzIDkuMDAxNjUgMjIuOTA0OEM5LjU1ODQxIDIyLjk0ODYgMTAgMjMuNDAzMSAxMCAyMy45NjE2QzEwIDI0LjU1MTEgOS41MDk0IDI1LjAyNjQgOC45MjE1IDI0Ljk4MjZDNi44NjE1MyAyNC44Mjg4IDUuNTIwMTggMjQuNDQwNiA0LjUzOTc3IDIzLjQ2MDJDMi45MTY2NiAyMS44MzcxIDIuOTE2NjYgMTkuMjI0NyAyLjkxNjY2IDE0Wk0yMy4wMDIzIDEyLjI2NjZDMjMuMDA0MiAxMi42NDk2IDIyLjY5MzYgMTIuOTYwOSAyMi4zMTA2IDEyLjk2MDlINS42ODkzOUM1LjMwNjM0IDEyLjk2MDkgNC45OTU3NyAxMi42NDk2IDQuOTk3NjggMTIuMjY2NkM1LjAwNjQyIDEwLjUxNTYgNS4wNDEyMiA5LjIyMjAxIDUuMTc5MTQgOC4xOTYxOEM1LjM1MTA1IDYuOTE3NTUgNS42NDgxNCA2LjM3MDMxIDYuMDA5MjMgNi4wMDkyM0M2LjM3MDMxIDUuNjQ4MTQgNi45MTc1NSA1LjM1MTA1IDguMTk2MTggNS4xNzkxNEM5LjUzNDU5IDQuOTk5MiAxMS4zMjg5IDQuOTk0NzggMTQgNC45OTQ3OEMxNi42NzExIDQuOTk0NzggMTguNDY1NCA0Ljk5OTIgMTkuODAzOCA1LjE3OTE0QzIxLjA4MjQgNS4zNTEwNSAyMS42Mjk3IDUuNjQ4MTQgMjEuOTkwNyA2LjAwOTIzQzIyLjM1MTggNi4zNzAzMSAyMi42NDg5IDYuOTE3NTUgMjIuODIwOCA4LjE5NjE4QzIyLjk1ODggOS4yMjIwMSAyMi45OTM2IDEwLjUxNTYgMjMuMDAyMyAxMi4yNjY2Wk0xNS4xMjQgMjQuNjU4N0wxNi45MTQyIDIwLjQ0MjlDMTYuOTcyNSAyMC4zMTE2IDE3LjA2NzcgMjAuMTUwNSAxNy4yMzIzIDIwLjA0OTZDMTcuMzgzMiAxOS45NTUxIDE3LjU1MTMgMTkuOTI2MyAxNy43MDMyIDE5LjkyNjNDMTcuODM4OCAxOS45MjYzIDE3Ljk4NCAxOS45NTEgMTguMTE5NCAyMC4wMjM3QzE4LjI1NTkgMjAuMDk2OSAxOC4zNTkyIDIwLjIwNjYgMTguNDI3NCAyMC4zMzgxQzE4LjU2OTkgMjAuNTk1MyAxOC41NTExIDIwLjg3MSAxOC40NDA4IDIxLjExM0wxNS45MjI3IDI2Ljg4OTJDMTUuODU4NCAyNy4wMzYxIDE1Ljc2MjEgMjcuMTcwNSAxNS42MjYyIDI3LjI3MjRMMTUuNjIxMiAyNy4yNzYxQzE1LjQ2OTYgMjcuMzg2NCAxNS4yOTYyIDI3LjQyNTYgMTUuMTMyNSAyNy40MjU2QzE0Ljk2NDYgMjcuNDI1NiAxNC43OTgxIDI3LjM4MDkgMTQuNjUxNyAyNy4yNzgxQzE0LjUwODYgMjcuMTc3NiAxNC40MTA4IDI3LjA0MDEgMTQuMzQ1IDI2Ljg5NTJMMTQuMzQyNCAyNi44ODk2TDExLjg0NDcgMjEuMTc4QzExLjc0MTggMjAuOTI4MiAxMS42OTIxIDIwLjYyOSAxMS44MzIxIDIwLjM0ODhDMTEuOTg2NiAyMC4wMzk5IDEyLjI4MzMgMTkuOTI2MyAxMi41NzAzIDE5LjkyNjNDMTIuNzMzIDE5LjkyNjMgMTIuOTAxNCAxOS45NjI4IDEzLjA1MjMgMjAuMDYwNEMxMy4yMDQ1IDIwLjE1ODYgMTMuMzA3MyAyMC4yOTg0IDEzLjM3MTQgMjAuNDUxMkwxMy4zNzE4IDIwLjQ1MjFMMTUuMTI0IDI0LjY1ODdaTTIxLjI4OTUgMjQuMjEwMVYyNi41NTc0QzIxLjI4OTUgMjYuNzkwNCAyMS4yMDUzIDI3LjAwNTEgMjEuMDM3MSAyNy4xNzMzQzIwLjg2ODkgMjcuMzQxNSAyMC42NTQzIDI3LjQyNTYgMjAuNDIxMiAyNy40MjU2QzIwLjE4ODIgMjcuNDI1NiAxOS45NzM1IDI3LjM0MTUgMTkuODA1MyAyNy4xNzMzQzE5LjYzNzEgMjcuMDA1MSAxOS41NTMgMjYuNzkwNCAxOS41NTMgMjYuNTU3NFYyMC43OTQ2QzE5LjU1MyAyMC41NjQxIDE5LjYzMiAyMC4zNDMgMTkuODEwNCAyMC4xNzM1QzE5Ljk3NzkgMjAuMDA4OCAyMC4xOTA1IDE5LjkyNjMgMjAuNDIxMiAxOS45MjYzQzIwLjc1NzcgMTkuOTI2MyAyMS4wMjI3IDIwLjA5OTcgMjEuMTgyMyAyMC4zNzkxTDIxLjE4ODIgMjAuMzg5NUwyMy4zMzQyIDI0LjY4ODNMMjUuNDI0NCAyMC4zOTE0TDI1LjQzMTQgMjAuMzc5MUMyNS41OTExIDIwLjA5OTcgMjUuODU2MSAxOS45MjYzIDI2LjE5MjUgMTkuOTI2M0MyNi40MjMyIDE5LjkyNjMgMjYuNjM1OSAyMC4wMDg4IDI2LjgwMzMgMjAuMTczNkMyNi45ODE4IDIwLjM0MyAyNy4wNjA4IDIwLjU2NDEgMjcuMDYwOCAyMC43OTQ2VjI2LjU1NzRDMjcuMDYwOCAyNi43OTcxIDI2Ljk2ODggMjcuMDEyOCAyNi43OTUxIDI3LjE3ODFDMjYuNjMxOCAyNy4zMzkgMjYuNDIzNiAyNy40MjU2IDI2LjE5MjUgMjcuNDI1NkMyNS45NTk1IDI3LjQyNTYgMjUuNzQ0OCAyNy4zNDE1IDI1LjU3NjYgMjcuMTczM0MyNS40MDg0IDI3LjAwNTEgMjUuMzI0MyAyNi43OTA0IDI1LjMyNDMgMjYuNTU3NFYyNC4xNTg1TDI0LjA2MDUgMjYuNzM0M0wyNC4wNDYyIDI2Ljc1NjJDMjMuODgxMiAyNy4wMDg1IDIzLjYyNzEgMjcuMTcwMiAyMy4zMDY5IDI3LjE3MDJDMjMuMTQ0MyAyNy4xNzAyIDIyLjk4MDQgMjcuMTMxMiAyMi44MzM0IDI3LjAzNjJDMjIuNjg4MyAyNi45NDI1IDIyLjU4NiAyNi44MTE1IDIyLjUxNjUgMjYuNjY4OEwyMS4yODk1IDI0LjIxMDFaIiBjbGlwLXJ1bGU9ImV2ZW5vZGQiIGZpbGwtcnVsZT0iZXZlbm9kZCIvPiYjeGE7PC9zdmc+;fontSize=16;strokeWidth=0;fontFamily=VK Sans Display;fontSource=https%3A%2F%2Ffonts.googleapis.com%2Fcss%3Ffamily%3DArchitects%2BDaughter;labelPosition=right;align=left;" vertex="1" parent="1">
          <mxGeometry x="-257" y="10" width="40" height="40" as="geometry" />
        </mxCell>
        <mxCell id="jCmkxCOtXwXN6SEzMLhW-5" value="Virtual IP" style="shape=image;verticalLabelPosition=bottom;labelBackgroundColor=default;verticalAlign=top;aspect=fixed;imageAspect=0;image=data:image/svg+xml,PHN2ZyB4bWxucz0iaHR0cDovL3d3dy53My5vcmcvMjAwMC9zdmciIGZpbGw9Im5vbmUiIHZpZXdCb3g9IjAgMCAyOCAyOCIgaGVpZ2h0PSIyOCIgd2lkdGg9IjI4Ij4mI3hhOzxwYXRoIGZpbGw9IiMwMDc3RkYiIGQ9Ik05LjExNDYzIDguODk1ODRDOC41MTA1NyA4Ljg5NTg0IDguMDIwODggOS4zODU1MyA4LjAyMDg4IDkuOTg5NTlWMTguMDEwNEM4LjAyMDg4IDE4LjYxNDUgOC41MTA1NyAxOS4xMDQyIDkuMTE0NjMgMTkuMTA0MkM5LjcxODY5IDE5LjEwNDIgMTAuMjA4NCAxOC42MTQ1IDEwLjIwODQgMTguMDEwNFY5Ljk4OTU5QzEwLjIwODQgOS4zODU1MyA5LjcxODY5IDguODk1ODQgOS4xMTQ2MyA4Ljg5NTg0WiIvPiYjeGE7PHBhdGggZmlsbD0iIzAwNzdGRiIgZD0iTTE0LjA3NDEgOC44OTU4NEMxMy4yNjg3IDguODk1ODQgMTIuNjE1OCA5LjU0ODc2IDEyLjYxNTggMTAuMzU0MlYxOC4wMTA0QzEyLjYxNTggMTguNjE0NSAxMy4xMDU1IDE5LjEwNDIgMTMuNzA5NSAxOS4xMDQyQzE0LjMxMzYgMTkuMTA0MiAxNC44MDMzIDE4LjYxNDUgMTQuODAzMyAxOC4wMTA0VjE1Ljc1SDE2LjkxNzlDMTcuNDYyMyAxNS43NSAxNy45NTgxIDE1LjY2NzQgMTguNDA1MyAxNS41MDIxQzE4Ljg1MjYgMTUuMzI3MSAxOS4yMzY2IDE1LjA4ODkgMTkuNTU3NCAxNC43ODc1QzE5Ljg3ODMgMTQuNDc2NCAyMC4xMjYyIDE0LjExMTggMjAuMzAxMiAxMy42OTM4QzIwLjQ3NjIgMTMuMjc1NyAyMC41NjM3IDEyLjgxODggMjAuNTYzNyAxMi4zMjI5QzIwLjU2MzcgMTEuODI3MSAyMC40NzYyIDExLjM3MDEgMjAuMzAxMiAxMC45NTIxQzIwLjEyNjIgMTAuNTM0IDE5Ljg3ODMgMTAuMTc0MyAxOS41NTc0IDkuODcyOTNDMTkuMjM2NiA5LjU2MTgyIDE4Ljg1MjYgOS4zMjM2MiAxOC40MDUzIDkuMTU4MzRDMTcuOTU4MSA4Ljk4MzM0IDE3LjQ2MjMgOC44OTU4NCAxNi45MTc5IDguODk1ODRIMTQuMDc0MVpNMTcuODk0OSAxMy4zMjkyQzE3LjYzMjQgMTMuNTgyIDE3LjI4MjQgMTMuNzA4MyAxNi44NDQ5IDEzLjcwODNIMTQuODAzM1YxMC45Mzc1SDE2Ljg0NDlDMTcuMjgyNCAxMC45Mzc1IDE3LjYzMjQgMTEuMDY4OCAxNy44OTQ5IDExLjMzMTNDMTguMTY3MiAxMS41ODQgMTguMzAzMyAxMS45MTQ2IDE4LjMwMzMgMTIuMzIyOUMxOC4zMDMzIDEyLjczMTMgMTguMTY3MiAxMy4wNjY3IDE3Ljg5NDkgMTMuMzI5MloiIGNsaXAtcnVsZT0iZXZlbm9kZCIgZmlsbC1ydWxlPSJldmVub2RkIi8+JiN4YTs8cGF0aCBmaWxsPSIjMDA3N0ZGIiBkPSJNMi4zMzMzNCAxMS42NjY3QzIuMzMzMzQgOC4zOTk3IDIuMzMzMzQgNi43NjYyMiAyLjk2OTE0IDUuNTE4NEMzLjUyODQgNC40MjA3OSA0LjQyMDc5IDMuNTI4NCA1LjUxODQgMi45NjkxNEM2Ljc2NjIyIDIuMzMzMzQgOC4zOTk3IDIuMzMzMzQgMTEuNjY2NyAyLjMzMzM0SDE2LjMzMzNDMTkuNjAwMyAyLjMzMzM0IDIxLjIzMzggMi4zMzMzNCAyMi40ODE2IDIuOTY5MTRDMjMuNTc5MiAzLjUyODQgMjQuNDcxNiA0LjQyMDc5IDI1LjAzMDkgNS41MTg0QzI1LjY2NjcgNi43NjYyMiAyNS42NjY3IDguMzk5NyAyNS42NjY3IDExLjY2NjdWMTYuMzMzM0MyNS42NjY3IDE5LjYwMDMgMjUuNjY2NyAyMS4yMzM4IDI1LjAzMDkgMjIuNDgxNkMyNC40NzE2IDIzLjU3OTIgMjMuNTc5MiAyNC40NzE2IDIyLjQ4MTYgMjUuMDMwOUMyMS4yMzM4IDI1LjY2NjcgMTkuNjAwMyAyNS42NjY3IDE2LjMzMzMgMjUuNjY2N0gxMS42NjY3QzguMzk5NyAyNS42NjY3IDYuNzY2MjIgMjUuNjY2NyA1LjUxODQgMjUuMDMwOUM0LjQyMDc5IDI0LjQ3MTYgMy41Mjg0IDIzLjU3OTIgMi45NjkxNCAyMi40ODE2QzIuMzMzMzQgMjEuMjMzOCAyLjMzMzM0IDE5LjYwMDMgMi4zMzMzNCAxNi4zMzMzVjExLjY2NjdaTTExLjY2NjcgNC41MjA4NEgxNi4zMzMzQzE4LjAwMjkgNC41MjA4NCAxOS4xMjM2IDQuNTIyNTQgMTkuOTg2NSA0LjU5MzA1QzIwLjgyNCA0LjY2MTQ3IDIxLjIyNDQgNC43ODM2MyAyMS40ODg1IDQuOTE4MjJDMjIuMTc0NSA1LjI2Nzc1IDIyLjczMjMgNS44MjU1IDIzLjA4MTggNi41MTE1QzIzLjIxNjQgNi43NzU2NCAyMy4zMzg1IDcuMTc2MDQgMjMuNDA3IDguMDEzNDlDMjMuNDc3NSA4Ljg3NjQ3IDIzLjQ3OTIgOS45OTcwOSAyMy40NzkyIDExLjY2NjdWMTYuMzMzM0MyMy40NzkyIDE4LjAwMjkgMjMuNDc3NSAxOS4xMjM2IDIzLjQwNyAxOS45ODY1QzIzLjMzODUgMjAuODI0IDIzLjIxNjQgMjEuMjI0NCAyMy4wODE4IDIxLjQ4ODVDMjIuNzMyMyAyMi4xNzQ1IDIyLjE3NDUgMjIuNzMyMyAyMS40ODg1IDIzLjA4MThDMjEuMjI0NCAyMy4yMTY0IDIwLjgyNCAyMy4zMzg1IDE5Ljk4NjUgMjMuNDA3QzE5LjEyMzYgMjMuNDc3NSAxOC4wMDI5IDIzLjQ3OTIgMTYuMzMzMyAyMy40NzkySDExLjY2NjdDOS45OTcwOSAyMy40NzkyIDguODc2NDcgMjMuNDc3NSA4LjAxMzQ5IDIzLjQwN0M3LjE3NjA0IDIzLjMzODUgNi43NzU2NCAyMy4yMTY0IDYuNTExNSAyMy4wODE4QzUuODI1NSAyMi43MzIzIDUuMjY3NzUgMjIuMTc0NSA0LjkxODIyIDIxLjQ4ODVDNC43ODM2MyAyMS4yMjQ0IDQuNjYxNDcgMjAuODI0IDQuNTkzMDUgMTkuOTg2NUM0LjUyMjU0IDE5LjEyMzYgNC41MjA4NCAxOC4wMDI5IDQuNTIwODQgMTYuMzMzM1YxMS42NjY3QzQuNTIwODQgOS45OTcwOSA0LjUyMjU0IDguODc2NDcgNC41OTMwNSA4LjAxMzQ5QzQuNjYxNDcgNy4xNzYwNCA0Ljc4MzYzIDYuNzc1NjQgNC45MTgyMiA2LjUxMTVDNS4yNjc3NSA1LjgyNTUgNS44MjU1IDUuMjY3NzUgNi41MTE1IDQuOTE4MjJDNi43NzU2NCA0Ljc4MzYzIDcuMTc2MDQgNC42NjE0NyA4LjAxMzQ5IDQuNTkzMDVDOC44NzY0NyA0LjUyMjU0IDkuOTk3MDkgNC41MjA4NCAxMS42NjY3IDQuNTIwODRaIiBjbGlwLXJ1bGU9ImV2ZW5vZGQiIGZpbGwtcnVsZT0iZXZlbm9kZCIvPiYjeGE7PC9zdmc+;fontSize=16;fontFamily=VK Sans Display;align=center;strokeWidth=0;fontSource=https%3A%2F%2Ffonts.googleapis.com%2Fcss%3Ffamily%3DArchitects%2BDaughter;labelPosition=center;" vertex="1" parent="1">
          <mxGeometry x="-207" y="79" width="32" height="32" as="geometry" />
        </mxCell>
        <mxCell id="jCmkxCOtXwXN6SEzMLhW-6" value="VM 1 IP" style="shape=image;verticalLabelPosition=bottom;labelBackgroundColor=default;verticalAlign=top;aspect=fixed;imageAspect=0;image=data:image/svg+xml,PHN2ZyB4bWxucz0iaHR0cDovL3d3dy53My5vcmcvMjAwMC9zdmciIGZpbGw9Im5vbmUiIHZpZXdCb3g9IjAgMCAyOCAyOCIgaGVpZ2h0PSIyOCIgd2lkdGg9IjI4Ij4mI3hhOzxwYXRoIGZpbGw9IiMwMDc3RkYiIGQ9Ik05LjExNDYzIDguODk1ODRDOC41MTA1NyA4Ljg5NTg0IDguMDIwODggOS4zODU1MyA4LjAyMDg4IDkuOTg5NTlWMTguMDEwNEM4LjAyMDg4IDE4LjYxNDUgOC41MTA1NyAxOS4xMDQyIDkuMTE0NjMgMTkuMTA0MkM5LjcxODY5IDE5LjEwNDIgMTAuMjA4NCAxOC42MTQ1IDEwLjIwODQgMTguMDEwNFY5Ljk4OTU5QzEwLjIwODQgOS4zODU1MyA5LjcxODY5IDguODk1ODQgOS4xMTQ2MyA4Ljg5NTg0WiIvPiYjeGE7PHBhdGggZmlsbD0iIzAwNzdGRiIgZD0iTTE0LjA3NDEgOC44OTU4NEMxMy4yNjg3IDguODk1ODQgMTIuNjE1OCA5LjU0ODc2IDEyLjYxNTggMTAuMzU0MlYxOC4wMTA0QzEyLjYxNTggMTguNjE0NSAxMy4xMDU1IDE5LjEwNDIgMTMuNzA5NSAxOS4xMDQyQzE0LjMxMzYgMTkuMTA0MiAxNC44MDMzIDE4LjYxNDUgMTQuODAzMyAxOC4wMTA0VjE1Ljc1SDE2LjkxNzlDMTcuNDYyMyAxNS43NSAxNy45NTgxIDE1LjY2NzQgMTguNDA1MyAxNS41MDIxQzE4Ljg1MjYgMTUuMzI3MSAxOS4yMzY2IDE1LjA4ODkgMTkuNTU3NCAxNC43ODc1QzE5Ljg3ODMgMTQuNDc2NCAyMC4xMjYyIDE0LjExMTggMjAuMzAxMiAxMy42OTM4QzIwLjQ3NjIgMTMuMjc1NyAyMC41NjM3IDEyLjgxODggMjAuNTYzNyAxMi4zMjI5QzIwLjU2MzcgMTEuODI3MSAyMC40NzYyIDExLjM3MDEgMjAuMzAxMiAxMC45NTIxQzIwLjEyNjIgMTAuNTM0IDE5Ljg3ODMgMTAuMTc0MyAxOS41NTc0IDkuODcyOTNDMTkuMjM2NiA5LjU2MTgyIDE4Ljg1MjYgOS4zMjM2MiAxOC40MDUzIDkuMTU4MzRDMTcuOTU4MSA4Ljk4MzM0IDE3LjQ2MjMgOC44OTU4NCAxNi45MTc5IDguODk1ODRIMTQuMDc0MVpNMTcuODk0OSAxMy4zMjkyQzE3LjYzMjQgMTMuNTgyIDE3LjI4MjQgMTMuNzA4MyAxNi44NDQ5IDEzLjcwODNIMTQuODAzM1YxMC45Mzc1SDE2Ljg0NDlDMTcuMjgyNCAxMC45Mzc1IDE3LjYzMjQgMTEuMDY4OCAxNy44OTQ5IDExLjMzMTNDMTguMTY3MiAxMS41ODQgMTguMzAzMyAxMS45MTQ2IDE4LjMwMzMgMTIuMzIyOUMxOC4zMDMzIDEyLjczMTMgMTguMTY3MiAxMy4wNjY3IDE3Ljg5NDkgMTMuMzI5MloiIGNsaXAtcnVsZT0iZXZlbm9kZCIgZmlsbC1ydWxlPSJldmVub2RkIi8+JiN4YTs8cGF0aCBmaWxsPSIjMDA3N0ZGIiBkPSJNMi4zMzMzNCAxMS42NjY3QzIuMzMzMzQgOC4zOTk3IDIuMzMzMzQgNi43NjYyMiAyLjk2OTE0IDUuNTE4NEMzLjUyODQgNC40MjA3OSA0LjQyMDc5IDMuNTI4NCA1LjUxODQgMi45NjkxNEM2Ljc2NjIyIDIuMzMzMzQgOC4zOTk3IDIuMzMzMzQgMTEuNjY2NyAyLjMzMzM0SDE2LjMzMzNDMTkuNjAwMyAyLjMzMzM0IDIxLjIzMzggMi4zMzMzNCAyMi40ODE2IDIuOTY5MTRDMjMuNTc5MiAzLjUyODQgMjQuNDcxNiA0LjQyMDc5IDI1LjAzMDkgNS41MTg0QzI1LjY2NjcgNi43NjYyMiAyNS42NjY3IDguMzk5NyAyNS42NjY3IDExLjY2NjdWMTYuMzMzM0MyNS42NjY3IDE5LjYwMDMgMjUuNjY2NyAyMS4yMzM4IDI1LjAzMDkgMjIuNDgxNkMyNC40NzE2IDIzLjU3OTIgMjMuNTc5MiAyNC40NzE2IDIyLjQ4MTYgMjUuMDMwOUMyMS4yMzM4IDI1LjY2NjcgMTkuNjAwMyAyNS42NjY3IDE2LjMzMzMgMjUuNjY2N0gxMS42NjY3QzguMzk5NyAyNS42NjY3IDYuNzY2MjIgMjUuNjY2NyA1LjUxODQgMjUuMDMwOUM0LjQyMDc5IDI0LjQ3MTYgMy41Mjg0IDIzLjU3OTIgMi45NjkxNCAyMi40ODE2QzIuMzMzMzQgMjEuMjMzOCAyLjMzMzM0IDE5LjYwMDMgMi4zMzMzNCAxNi4zMzMzVjExLjY2NjdaTTExLjY2NjcgNC41MjA4NEgxNi4zMzMzQzE4LjAwMjkgNC41MjA4NCAxOS4xMjM2IDQuNTIyNTQgMTkuOTg2NSA0LjU5MzA1QzIwLjgyNCA0LjY2MTQ3IDIxLjIyNDQgNC43ODM2MyAyMS40ODg1IDQuOTE4MjJDMjIuMTc0NSA1LjI2Nzc1IDIyLjczMjMgNS44MjU1IDIzLjA4MTggNi41MTE1QzIzLjIxNjQgNi43NzU2NCAyMy4zMzg1IDcuMTc2MDQgMjMuNDA3IDguMDEzNDlDMjMuNDc3NSA4Ljg3NjQ3IDIzLjQ3OTIgOS45OTcwOSAyMy40NzkyIDExLjY2NjdWMTYuMzMzM0MyMy40NzkyIDE4LjAwMjkgMjMuNDc3NSAxOS4xMjM2IDIzLjQwNyAxOS45ODY1QzIzLjMzODUgMjAuODI0IDIzLjIxNjQgMjEuMjI0NCAyMy4wODE4IDIxLjQ4ODVDMjIuNzMyMyAyMi4xNzQ1IDIyLjE3NDUgMjIuNzMyMyAyMS40ODg1IDIzLjA4MThDMjEuMjI0NCAyMy4yMTY0IDIwLjgyNCAyMy4zMzg1IDE5Ljk4NjUgMjMuNDA3QzE5LjEyMzYgMjMuNDc3NSAxOC4wMDI5IDIzLjQ3OTIgMTYuMzMzMyAyMy40NzkySDExLjY2NjdDOS45OTcwOSAyMy40NzkyIDguODc2NDcgMjMuNDc3NSA4LjAxMzQ5IDIzLjQwN0M3LjE3NjA0IDIzLjMzODUgNi43NzU2NCAyMy4yMTY0IDYuNTExNSAyMy4wODE4QzUuODI1NSAyMi43MzIzIDUuMjY3NzUgMjIuMTc0NSA0LjkxODIyIDIxLjQ4ODVDNC43ODM2MyAyMS4yMjQ0IDQuNjYxNDcgMjAuODI0IDQuNTkzMDUgMTkuOTg2NUM0LjUyMjU0IDE5LjEyMzYgNC41MjA4NCAxOC4wMDI5IDQuNTIwODQgMTYuMzMzM1YxMS42NjY3QzQuNTIwODQgOS45OTcwOSA0LjUyMjU0IDguODc2NDcgNC41OTMwNSA4LjAxMzQ5QzQuNjYxNDcgNy4xNzYwNCA0Ljc4MzYzIDYuNzc1NjQgNC45MTgyMiA2LjUxMTVDNS4yNjc3NSA1LjgyNTUgNS44MjU1IDUuMjY3NzUgNi41MTE1IDQuOTE4MjJDNi43NzU2NCA0Ljc4MzYzIDcuMTc2MDQgNC42NjE0NyA4LjAxMzQ5IDQuNTkzMDVDOC44NzY0NyA0LjUyMjU0IDkuOTk3MDkgNC41MjA4NCAxMS42NjY3IDQuNTIwODRaIiBjbGlwLXJ1bGU9ImV2ZW5vZGQiIGZpbGwtcnVsZT0iZXZlbm9kZCIvPiYjeGE7PC9zdmc+;fontSize=16;fontFamily=VK Sans Display;align=center;strokeWidth=0;fontSource=https%3A%2F%2Ffonts.googleapis.com%2Fcss%3Ffamily%3DArchitects%2BDaughter;labelPosition=center;" vertex="1" parent="1">
          <mxGeometry x="-207" y="159" width="32" height="32" as="geometry" />
        </mxCell>
        <mxCell id="jCmkxCOtXwXN6SEzMLhW-7" value="&lt;font color=&quot;#212121&quot;&gt;keepalived&lt;br&gt;VRRP MASTER&lt;br&gt;&lt;/font&gt;" style="rounded=1;whiteSpace=wrap;html=1;fontFamily=VK Sans Display;strokeColor=none;arcsize=12;fillColor=#EFAE98;spacing=0;spacingTop=12;spacingBottom=12;arcSize=12;absoluteArcSize=1;" vertex="1" parent="1">
          <mxGeometry x="-137" y="120" width="120" height="50" as="geometry" />
        </mxCell>
        <mxCell id="jCmkxCOtXwXN6SEzMLhW-15" value="&lt;font style=&quot;font-size: 16px;&quot;&gt;&lt;br&gt;&lt;/font&gt;" style="rounded=1;whiteSpace=wrap;html=1;strokeColor=#7C8A9A;strokeWidth=1;fontColor=#212121;fillColor=none;dashed=1;arcSize=12;absoluteArcSize=1;align=center;verticalAlign=top;" vertex="1" parent="1">
          <mxGeometry x="-257" y="281" width="260" height="230" as="geometry" />
        </mxCell>
        <mxCell id="jCmkxCOtXwXN6SEzMLhW-16" value="kld-vm-2" style="shape=image;verticalLabelPosition=middle;labelBackgroundColor=default;verticalAlign=middle;aspect=fixed;imageAspect=0;image=data:image/svg+xml,PHN2ZyB4bWxucz0iaHR0cDovL3d3dy53My5vcmcvMjAwMC9zdmciIGZpbGw9Im5vbmUiIHZpZXdCb3g9IjAgMCAyOCAyOCIgaGVpZ2h0PSIyOCIgd2lkdGg9IjI4Ij4mI3hhOzxwYXRoIGZpbGw9IiMwMDc3RkYiIGQ9Ik0yLjkxNjY2IDE0QzIuOTE2NjYgOC43NzUyNiAyLjkxNjY2IDYuMTYyODkgNC41Mzk3NyA0LjUzOTc3QzYuMTYyODkgMi45MTY2NiA4Ljc3NTI2IDIuOTE2NjYgMTQgMi45MTY2NkMxOS4yMjQ3IDIuOTE2NjYgMjEuODM3MSAyLjkxNjY2IDIzLjQ2MDIgNC41Mzk3N0MyNS4wODMzIDYuMTYyODkgMjUuMDgzMyA4Ljc3NTI2IDI1LjA4MzMgMTRDMjUuMDgzMyAxNS4xNjI2IDI1LjA2MDIgMTYuNDc3NiAyNS4wMzA4IDE3LjUzOThDMjUuMDE1OSAxOC4wNzU5IDI0LjU3NTYgMTguNSAyNC4wMzkzIDE4LjVDMjMuNDczMyAxOC41IDIzLjAxNDkgMTguMDI5MiAyMy4wMTIxIDE3LjQ2MzFDMjMuMDExMSAxNy4yNTUxIDIzLjAwOTIgMTcuMDM4NiAyMy4wMDczIDE2LjgyM0MyMy4wMDQgMTYuNDM5MiAyMy4wMDA3IDE2LjA1ODMgMjMuMDAyMyAxNS43MzM0QzIzLjAwNDIgMTUuMzUwMyAyMi42OTM2IDE1LjAzOTEgMjIuMzEwNiAxNS4wMzkxSDUuNjg5MzlDNS4zMDYzNCAxNS4wMzkxIDQuOTk1NzcgMTUuMzUwMyA0Ljk5NzY4IDE1LjczMzRDNS4wMDY0MiAxNy40ODQzIDUuMDQxMjIgMTguNzc4IDUuMTc5MTQgMTkuODAzOEM1LjM1MTA1IDIxLjA4MjQgNS42NDgxNCAyMS42Mjk3IDYuMDA5MjMgMjEuOTkwN0M2LjM3MDMxIDIyLjM1MTggNi45MTc1NSAyMi42NDg5IDguMTk2MTggMjIuODIwOEM4LjQ0NzY1IDIyLjg1NDYgOC43MTUyMSAyMi44ODIzIDkuMDAxNjUgMjIuOTA0OEM5LjU1ODQxIDIyLjk0ODYgMTAgMjMuNDAzMSAxMCAyMy45NjE2QzEwIDI0LjU1MTEgOS41MDk0IDI1LjAyNjQgOC45MjE1IDI0Ljk4MjZDNi44NjE1MyAyNC44Mjg4IDUuNTIwMTggMjQuNDQwNiA0LjUzOTc3IDIzLjQ2MDJDMi45MTY2NiAyMS44MzcxIDIuOTE2NjYgMTkuMjI0NyAyLjkxNjY2IDE0Wk0yMy4wMDIzIDEyLjI2NjZDMjMuMDA0MiAxMi42NDk2IDIyLjY5MzYgMTIuOTYwOSAyMi4zMTA2IDEyLjk2MDlINS42ODkzOUM1LjMwNjM0IDEyLjk2MDkgNC45OTU3NyAxMi42NDk2IDQuOTk3NjggMTIuMjY2NkM1LjAwNjQyIDEwLjUxNTYgNS4wNDEyMiA5LjIyMjAxIDUuMTc5MTQgOC4xOTYxOEM1LjM1MTA1IDYuOTE3NTUgNS42NDgxNCA2LjM3MDMxIDYuMDA5MjMgNi4wMDkyM0M2LjM3MDMxIDUuNjQ4MTQgNi45MTc1NSA1LjM1MTA1IDguMTk2MTggNS4xNzkxNEM5LjUzNDU5IDQuOTk5MiAxMS4zMjg5IDQuOTk0NzggMTQgNC45OTQ3OEMxNi42NzExIDQuOTk0NzggMTguNDY1NCA0Ljk5OTIgMTkuODAzOCA1LjE3OTE0QzIxLjA4MjQgNS4zNTEwNSAyMS42Mjk3IDUuNjQ4MTQgMjEuOTkwNyA2LjAwOTIzQzIyLjM1MTggNi4zNzAzMSAyMi42NDg5IDYuOTE3NTUgMjIuODIwOCA4LjE5NjE4QzIyLjk1ODggOS4yMjIwMSAyMi45OTM2IDEwLjUxNTYgMjMuMDAyMyAxMi4yNjY2Wk0xNS4xMjQgMjQuNjU4N0wxNi45MTQyIDIwLjQ0MjlDMTYuOTcyNSAyMC4zMTE2IDE3LjA2NzcgMjAuMTUwNSAxNy4yMzIzIDIwLjA0OTZDMTcuMzgzMiAxOS45NTUxIDE3LjU1MTMgMTkuOTI2MyAxNy43MDMyIDE5LjkyNjNDMTcuODM4OCAxOS45MjYzIDE3Ljk4NCAxOS45NTEgMTguMTE5NCAyMC4wMjM3QzE4LjI1NTkgMjAuMDk2OSAxOC4zNTkyIDIwLjIwNjYgMTguNDI3NCAyMC4zMzgxQzE4LjU2OTkgMjAuNTk1MyAxOC41NTExIDIwLjg3MSAxOC40NDA4IDIxLjExM0wxNS45MjI3IDI2Ljg4OTJDMTUuODU4NCAyNy4wMzYxIDE1Ljc2MjEgMjcuMTcwNSAxNS42MjYyIDI3LjI3MjRMMTUuNjIxMiAyNy4yNzYxQzE1LjQ2OTYgMjcuMzg2NCAxNS4yOTYyIDI3LjQyNTYgMTUuMTMyNSAyNy40MjU2QzE0Ljk2NDYgMjcuNDI1NiAxNC43OTgxIDI3LjM4MDkgMTQuNjUxNyAyNy4yNzgxQzE0LjUwODYgMjcuMTc3NiAxNC40MTA4IDI3LjA0MDEgMTQuMzQ1IDI2Ljg5NTJMMTQuMzQyNCAyNi44ODk2TDExLjg0NDcgMjEuMTc4QzExLjc0MTggMjAuOTI4MiAxMS42OTIxIDIwLjYyOSAxMS44MzIxIDIwLjM0ODhDMTEuOTg2NiAyMC4wMzk5IDEyLjI4MzMgMTkuOTI2MyAxMi41NzAzIDE5LjkyNjNDMTIuNzMzIDE5LjkyNjMgMTIuOTAxNCAxOS45NjI4IDEzLjA1MjMgMjAuMDYwNEMxMy4yMDQ1IDIwLjE1ODYgMTMuMzA3MyAyMC4yOTg0IDEzLjM3MTQgMjAuNDUxMkwxMy4zNzE4IDIwLjQ1MjFMMTUuMTI0IDI0LjY1ODdaTTIxLjI4OTUgMjQuMjEwMVYyNi41NTc0QzIxLjI4OTUgMjYuNzkwNCAyMS4yMDUzIDI3LjAwNTEgMjEuMDM3MSAyNy4xNzMzQzIwLjg2ODkgMjcuMzQxNSAyMC42NTQzIDI3LjQyNTYgMjAuNDIxMiAyNy40MjU2QzIwLjE4ODIgMjcuNDI1NiAxOS45NzM1IDI3LjM0MTUgMTkuODA1MyAyNy4xNzMzQzE5LjYzNzEgMjcuMDA1MSAxOS41NTMgMjYuNzkwNCAxOS41NTMgMjYuNTU3NFYyMC43OTQ2QzE5LjU1MyAyMC41NjQxIDE5LjYzMiAyMC4zNDMgMTkuODEwNCAyMC4xNzM1QzE5Ljk3NzkgMjAuMDA4OCAyMC4xOTA1IDE5LjkyNjMgMjAuNDIxMiAxOS45MjYzQzIwLjc1NzcgMTkuOTI2MyAyMS4wMjI3IDIwLjA5OTcgMjEuMTgyMyAyMC4zNzkxTDIxLjE4ODIgMjAuMzg5NUwyMy4zMzQyIDI0LjY4ODNMMjUuNDI0NCAyMC4zOTE0TDI1LjQzMTQgMjAuMzc5MUMyNS41OTExIDIwLjA5OTcgMjUuODU2MSAxOS45MjYzIDI2LjE5MjUgMTkuOTI2M0MyNi40MjMyIDE5LjkyNjMgMjYuNjM1OSAyMC4wMDg4IDI2LjgwMzMgMjAuMTczNkMyNi45ODE4IDIwLjM0MyAyNy4wNjA4IDIwLjU2NDEgMjcuMDYwOCAyMC43OTQ2VjI2LjU1NzRDMjcuMDYwOCAyNi43OTcxIDI2Ljk2ODggMjcuMDEyOCAyNi43OTUxIDI3LjE3ODFDMjYuNjMxOCAyNy4zMzkgMjYuNDIzNiAyNy40MjU2IDI2LjE5MjUgMjcuNDI1NkMyNS45NTk1IDI3LjQyNTYgMjUuNzQ0OCAyNy4zNDE1IDI1LjU3NjYgMjcuMTczM0MyNS40MDg0IDI3LjAwNTEgMjUuMzI0MyAyNi43OTA0IDI1LjMyNDMgMjYuNTU3NFYyNC4xNTg1TDI0LjA2MDUgMjYuNzM0M0wyNC4wNDYyIDI2Ljc1NjJDMjMuODgxMiAyNy4wMDg1IDIzLjYyNzEgMjcuMTcwMiAyMy4zMDY5IDI3LjE3MDJDMjMuMTQ0MyAyNy4xNzAyIDIyLjk4MDQgMjcuMTMxMiAyMi44MzM0IDI3LjAzNjJDMjIuNjg4MyAyNi45NDI1IDIyLjU4NiAyNi44MTE1IDIyLjUxNjUgMjYuNjY4OEwyMS4yODk1IDI0LjIxMDFaIiBjbGlwLXJ1bGU9ImV2ZW5vZGQiIGZpbGwtcnVsZT0iZXZlbm9kZCIvPiYjeGE7PC9zdmc+;fontSize=16;strokeWidth=0;fontFamily=VK Sans Display;fontSource=https%3A%2F%2Ffonts.googleapis.com%2Fcss%3Ffamily%3DArchitects%2BDaughter;labelPosition=right;align=left;" vertex="1" parent="1">
          <mxGeometry x="-257" y="280" width="40" height="40" as="geometry" />
        </mxCell>
        <mxCell id="jCmkxCOtXwXN6SEzMLhW-17" value="VM 2 IP" style="shape=image;verticalLabelPosition=bottom;labelBackgroundColor=default;verticalAlign=top;aspect=fixed;imageAspect=0;image=data:image/svg+xml,PHN2ZyB4bWxucz0iaHR0cDovL3d3dy53My5vcmcvMjAwMC9zdmciIGZpbGw9Im5vbmUiIHZpZXdCb3g9IjAgMCAyOCAyOCIgaGVpZ2h0PSIyOCIgd2lkdGg9IjI4Ij4mI3hhOzxwYXRoIGZpbGw9IiMwMDc3RkYiIGQ9Ik05LjExNDYzIDguODk1ODRDOC41MTA1NyA4Ljg5NTg0IDguMDIwODggOS4zODU1MyA4LjAyMDg4IDkuOTg5NTlWMTguMDEwNEM4LjAyMDg4IDE4LjYxNDUgOC41MTA1NyAxOS4xMDQyIDkuMTE0NjMgMTkuMTA0MkM5LjcxODY5IDE5LjEwNDIgMTAuMjA4NCAxOC42MTQ1IDEwLjIwODQgMTguMDEwNFY5Ljk4OTU5QzEwLjIwODQgOS4zODU1MyA5LjcxODY5IDguODk1ODQgOS4xMTQ2MyA4Ljg5NTg0WiIvPiYjeGE7PHBhdGggZmlsbD0iIzAwNzdGRiIgZD0iTTE0LjA3NDEgOC44OTU4NEMxMy4yNjg3IDguODk1ODQgMTIuNjE1OCA5LjU0ODc2IDEyLjYxNTggMTAuMzU0MlYxOC4wMTA0QzEyLjYxNTggMTguNjE0NSAxMy4xMDU1IDE5LjEwNDIgMTMuNzA5NSAxOS4xMDQyQzE0LjMxMzYgMTkuMTA0MiAxNC44MDMzIDE4LjYxNDUgMTQuODAzMyAxOC4wMTA0VjE1Ljc1SDE2LjkxNzlDMTcuNDYyMyAxNS43NSAxNy45NTgxIDE1LjY2NzQgMTguNDA1MyAxNS41MDIxQzE4Ljg1MjYgMTUuMzI3MSAxOS4yMzY2IDE1LjA4ODkgMTkuNTU3NCAxNC43ODc1QzE5Ljg3ODMgMTQuNDc2NCAyMC4xMjYyIDE0LjExMTggMjAuMzAxMiAxMy42OTM4QzIwLjQ3NjIgMTMuMjc1NyAyMC41NjM3IDEyLjgxODggMjAuNTYzNyAxMi4zMjI5QzIwLjU2MzcgMTEuODI3MSAyMC40NzYyIDExLjM3MDEgMjAuMzAxMiAxMC45NTIxQzIwLjEyNjIgMTAuNTM0IDE5Ljg3ODMgMTAuMTc0MyAxOS41NTc0IDkuODcyOTNDMTkuMjM2NiA5LjU2MTgyIDE4Ljg1MjYgOS4zMjM2MiAxOC40MDUzIDkuMTU4MzRDMTcuOTU4MSA4Ljk4MzM0IDE3LjQ2MjMgOC44OTU4NCAxNi45MTc5IDguODk1ODRIMTQuMDc0MVpNMTcuODk0OSAxMy4zMjkyQzE3LjYzMjQgMTMuNTgyIDE3LjI4MjQgMTMuNzA4MyAxNi44NDQ5IDEzLjcwODNIMTQuODAzM1YxMC45Mzc1SDE2Ljg0NDlDMTcuMjgyNCAxMC45Mzc1IDE3LjYzMjQgMTEuMDY4OCAxNy44OTQ5IDExLjMzMTNDMTguMTY3MiAxMS41ODQgMTguMzAzMyAxMS45MTQ2IDE4LjMwMzMgMTIuMzIyOUMxOC4zMDMzIDEyLjczMTMgMTguMTY3MiAxMy4wNjY3IDE3Ljg5NDkgMTMuMzI5MloiIGNsaXAtcnVsZT0iZXZlbm9kZCIgZmlsbC1ydWxlPSJldmVub2RkIi8+JiN4YTs8cGF0aCBmaWxsPSIjMDA3N0ZGIiBkPSJNMi4zMzMzNCAxMS42NjY3QzIuMzMzMzQgOC4zOTk3IDIuMzMzMzQgNi43NjYyMiAyLjk2OTE0IDUuNTE4NEMzLjUyODQgNC40MjA3OSA0LjQyMDc5IDMuNTI4NCA1LjUxODQgMi45NjkxNEM2Ljc2NjIyIDIuMzMzMzQgOC4zOTk3IDIuMzMzMzQgMTEuNjY2NyAyLjMzMzM0SDE2LjMzMzNDMTkuNjAwMyAyLjMzMzM0IDIxLjIzMzggMi4zMzMzNCAyMi40ODE2IDIuOTY5MTRDMjMuNTc5MiAzLjUyODQgMjQuNDcxNiA0LjQyMDc5IDI1LjAzMDkgNS41MTg0QzI1LjY2NjcgNi43NjYyMiAyNS42NjY3IDguMzk5NyAyNS42NjY3IDExLjY2NjdWMTYuMzMzM0MyNS42NjY3IDE5LjYwMDMgMjUuNjY2NyAyMS4yMzM4IDI1LjAzMDkgMjIuNDgxNkMyNC40NzE2IDIzLjU3OTIgMjMuNTc5MiAyNC40NzE2IDIyLjQ4MTYgMjUuMDMwOUMyMS4yMzM4IDI1LjY2NjcgMTkuNjAwMyAyNS42NjY3IDE2LjMzMzMgMjUuNjY2N0gxMS42NjY3QzguMzk5NyAyNS42NjY3IDYuNzY2MjIgMjUuNjY2NyA1LjUxODQgMjUuMDMwOUM0LjQyMDc5IDI0LjQ3MTYgMy41Mjg0IDIzLjU3OTIgMi45NjkxNCAyMi40ODE2QzIuMzMzMzQgMjEuMjMzOCAyLjMzMzM0IDE5LjYwMDMgMi4zMzMzNCAxNi4zMzMzVjExLjY2NjdaTTExLjY2NjcgNC41MjA4NEgxNi4zMzMzQzE4LjAwMjkgNC41MjA4NCAxOS4xMjM2IDQuNTIyNTQgMTkuOTg2NSA0LjU5MzA1QzIwLjgyNCA0LjY2MTQ3IDIxLjIyNDQgNC43ODM2MyAyMS40ODg1IDQuOTE4MjJDMjIuMTc0NSA1LjI2Nzc1IDIyLjczMjMgNS44MjU1IDIzLjA4MTggNi41MTE1QzIzLjIxNjQgNi43NzU2NCAyMy4zMzg1IDcuMTc2MDQgMjMuNDA3IDguMDEzNDlDMjMuNDc3NSA4Ljg3NjQ3IDIzLjQ3OTIgOS45OTcwOSAyMy40NzkyIDExLjY2NjdWMTYuMzMzM0MyMy40NzkyIDE4LjAwMjkgMjMuNDc3NSAxOS4xMjM2IDIzLjQwNyAxOS45ODY1QzIzLjMzODUgMjAuODI0IDIzLjIxNjQgMjEuMjI0NCAyMy4wODE4IDIxLjQ4ODVDMjIuNzMyMyAyMi4xNzQ1IDIyLjE3NDUgMjIuNzMyMyAyMS40ODg1IDIzLjA4MThDMjEuMjI0NCAyMy4yMTY0IDIwLjgyNCAyMy4zMzg1IDE5Ljk4NjUgMjMuNDA3QzE5LjEyMzYgMjMuNDc3NSAxOC4wMDI5IDIzLjQ3OTIgMTYuMzMzMyAyMy40NzkySDExLjY2NjdDOS45OTcwOSAyMy40NzkyIDguODc2NDcgMjMuNDc3NSA4LjAxMzQ5IDIzLjQwN0M3LjE3NjA0IDIzLjMzODUgNi43NzU2NCAyMy4yMTY0IDYuNTExNSAyMy4wODE4QzUuODI1NSAyMi43MzIzIDUuMjY3NzUgMjIuMTc0NSA0LjkxODIyIDIxLjQ4ODVDNC43ODM2MyAyMS4yMjQ0IDQuNjYxNDcgMjAuODI0IDQuNTkzMDUgMTkuOTg2NUM0LjUyMjU0IDE5LjEyMzYgNC41MjA4NCAxOC4wMDI5IDQuNTIwODQgMTYuMzMzM1YxMS42NjY3QzQuNTIwODQgOS45OTcwOSA0LjUyMjU0IDguODc2NDcgNC41OTMwNSA4LjAxMzQ5QzQuNjYxNDcgNy4xNzYwNCA0Ljc4MzYzIDYuNzc1NjQgNC45MTgyMiA2LjUxMTVDNS4yNjc3NSA1LjgyNTUgNS44MjU1IDUuMjY3NzUgNi41MTE1IDQuOTE4MjJDNi43NzU2NCA0Ljc4MzYzIDcuMTc2MDQgNC42NjE0NyA4LjAxMzQ5IDQuNTkzMDVDOC44NzY0NyA0LjUyMjU0IDkuOTk3MDkgNC41MjA4NCAxMS42NjY3IDQuNTIwODRaIiBjbGlwLXJ1bGU9ImV2ZW5vZGQiIGZpbGwtcnVsZT0iZXZlbm9kZCIvPiYjeGE7PC9zdmc+;fontSize=16;fontFamily=VK Sans Display;align=center;strokeWidth=0;fontSource=https%3A%2F%2Ffonts.googleapis.com%2Fcss%3Ffamily%3DArchitects%2BDaughter;labelPosition=center;" vertex="1" parent="1">
          <mxGeometry x="-207" y="349" width="32" height="32" as="geometry" />
        </mxCell>
        <mxCell id="jCmkxCOtXwXN6SEzMLhW-19" value="&lt;font color=&quot;#212121&quot;&gt;keepalived&lt;br&gt;VRRP BACKUP&lt;br&gt;&lt;/font&gt;" style="rounded=1;whiteSpace=wrap;html=1;fontFamily=VK Sans Display;strokeColor=none;arcsize=12;fillColor=#EFAE98;spacing=0;spacingTop=12;spacingBottom=12;arcSize=12;absoluteArcSize=1;" vertex="1" parent="1">
          <mxGeometry x="-137" y="390" width="120" height="50" as="geometry" />
        </mxCell>
        <mxCell id="jCmkxCOtXwXN6SEzMLhW-33" style="edgeStyle=none;shape=connector;curved=0;rounded=1;orthogonalLoop=1;jettySize=auto;html=1;exitX=1;exitY=0.25;exitDx=0;exitDy=0;entryX=0;entryY=0.5;entryDx=0;entryDy=0;labelBackgroundColor=#FFFFFF;strokeColor=#7C8A9A;strokeWidth=2;align=center;verticalAlign=middle;spacing=8;fontFamily=VK Sans Display;fontSize=12;fontColor=#212121;startArrow=none;startFill=0;endArrow=open;endFill=0;" edge="1" parent="1" source="jCmkxCOtXwXN6SEzMLhW-20" target="jCmkxCOtXwXN6SEzMLhW-5">
          <mxGeometry relative="1" as="geometry">
            <Array as="points">
              <mxPoint x="-297" y="253" />
              <mxPoint x="-297" y="95" />
            </Array>
          </mxGeometry>
        </mxCell>
        <mxCell id="jCmkxCOtXwXN6SEzMLhW-36" style="edgeStyle=none;shape=connector;curved=0;rounded=1;orthogonalLoop=1;jettySize=auto;html=1;exitX=1;exitY=0.75;exitDx=0;exitDy=0;entryX=0;entryY=0.5;entryDx=0;entryDy=0;labelBackgroundColor=#FFFFFF;strokeColor=#7C8A9A;strokeWidth=2;align=center;verticalAlign=middle;spacing=8;fontFamily=VK Sans Display;fontSize=12;fontColor=#212121;startArrow=none;startFill=0;endArrow=open;endFill=0;dashed=1;" edge="1" parent="1" source="jCmkxCOtXwXN6SEzMLhW-20" target="jCmkxCOtXwXN6SEzMLhW-35">
          <mxGeometry relative="1" as="geometry">
            <Array as="points">
              <mxPoint x="-297" y="270" />
              <mxPoint x="-297" y="446" />
            </Array>
          </mxGeometry>
        </mxCell>
        <mxCell id="jCmkxCOtXwXN6SEzMLhW-20" value="Virtual IP" style="shape=image;verticalLabelPosition=bottom;labelBackgroundColor=default;verticalAlign=top;aspect=fixed;imageAspect=0;image=data:image/svg+xml,PHN2ZyB4bWxucz0iaHR0cDovL3d3dy53My5vcmcvMjAwMC9zdmciIGZpbGw9Im5vbmUiIHZpZXdCb3g9IjAgMCAyOCAyOCIgaGVpZ2h0PSIyOCIgd2lkdGg9IjI4Ij4mI3hhOzxwYXRoIGZpbGw9IiMwMDc3RkYiIGQ9Ik05LjExNDYzIDguODk1ODRDOC41MTA1NyA4Ljg5NTg0IDguMDIwODggOS4zODU1MyA4LjAyMDg4IDkuOTg5NTlWMTguMDEwNEM4LjAyMDg4IDE4LjYxNDUgOC41MTA1NyAxOS4xMDQyIDkuMTE0NjMgMTkuMTA0MkM5LjcxODY5IDE5LjEwNDIgMTAuMjA4NCAxOC42MTQ1IDEwLjIwODQgMTguMDEwNFY5Ljk4OTU5QzEwLjIwODQgOS4zODU1MyA5LjcxODY5IDguODk1ODQgOS4xMTQ2MyA4Ljg5NTg0WiIvPiYjeGE7PHBhdGggZmlsbD0iIzAwNzdGRiIgZD0iTTE0LjA3NDEgOC44OTU4NEMxMy4yNjg3IDguODk1ODQgMTIuNjE1OCA5LjU0ODc2IDEyLjYxNTggMTAuMzU0MlYxOC4wMTA0QzEyLjYxNTggMTguNjE0NSAxMy4xMDU1IDE5LjEwNDIgMTMuNzA5NSAxOS4xMDQyQzE0LjMxMzYgMTkuMTA0MiAxNC44MDMzIDE4LjYxNDUgMTQuODAzMyAxOC4wMTA0VjE1Ljc1SDE2LjkxNzlDMTcuNDYyMyAxNS43NSAxNy45NTgxIDE1LjY2NzQgMTguNDA1MyAxNS41MDIxQzE4Ljg1MjYgMTUuMzI3MSAxOS4yMzY2IDE1LjA4ODkgMTkuNTU3NCAxNC43ODc1QzE5Ljg3ODMgMTQuNDc2NCAyMC4xMjYyIDE0LjExMTggMjAuMzAxMiAxMy42OTM4QzIwLjQ3NjIgMTMuMjc1NyAyMC41NjM3IDEyLjgxODggMjAuNTYzNyAxMi4zMjI5QzIwLjU2MzcgMTEuODI3MSAyMC40NzYyIDExLjM3MDEgMjAuMzAxMiAxMC45NTIxQzIwLjEyNjIgMTAuNTM0IDE5Ljg3ODMgMTAuMTc0MyAxOS41NTc0IDkuODcyOTNDMTkuMjM2NiA5LjU2MTgyIDE4Ljg1MjYgOS4zMjM2MiAxOC40MDUzIDkuMTU4MzRDMTcuOTU4MSA4Ljk4MzM0IDE3LjQ2MjMgOC44OTU4NCAxNi45MTc5IDguODk1ODRIMTQuMDc0MVpNMTcuODk0OSAxMy4zMjkyQzE3LjYzMjQgMTMuNTgyIDE3LjI4MjQgMTMuNzA4MyAxNi44NDQ5IDEzLjcwODNIMTQuODAzM1YxMC45Mzc1SDE2Ljg0NDlDMTcuMjgyNCAxMC45Mzc1IDE3LjYzMjQgMTEuMDY4OCAxNy44OTQ5IDExLjMzMTNDMTguMTY3MiAxMS41ODQgMTguMzAzMyAxMS45MTQ2IDE4LjMwMzMgMTIuMzIyOUMxOC4zMDMzIDEyLjczMTMgMTguMTY3MiAxMy4wNjY3IDE3Ljg5NDkgMTMuMzI5MloiIGNsaXAtcnVsZT0iZXZlbm9kZCIgZmlsbC1ydWxlPSJldmVub2RkIi8+JiN4YTs8cGF0aCBmaWxsPSIjMDA3N0ZGIiBkPSJNMi4zMzMzNCAxMS42NjY3QzIuMzMzMzQgOC4zOTk3IDIuMzMzMzQgNi43NjYyMiAyLjk2OTE0IDUuNTE4NEMzLjUyODQgNC40MjA3OSA0LjQyMDc5IDMuNTI4NCA1LjUxODQgMi45NjkxNEM2Ljc2NjIyIDIuMzMzMzQgOC4zOTk3IDIuMzMzMzQgMTEuNjY2NyAyLjMzMzM0SDE2LjMzMzNDMTkuNjAwMyAyLjMzMzM0IDIxLjIzMzggMi4zMzMzNCAyMi40ODE2IDIuOTY5MTRDMjMuNTc5MiAzLjUyODQgMjQuNDcxNiA0LjQyMDc5IDI1LjAzMDkgNS41MTg0QzI1LjY2NjcgNi43NjYyMiAyNS42NjY3IDguMzk5NyAyNS42NjY3IDExLjY2NjdWMTYuMzMzM0MyNS42NjY3IDE5LjYwMDMgMjUuNjY2NyAyMS4yMzM4IDI1LjAzMDkgMjIuNDgxNkMyNC40NzE2IDIzLjU3OTIgMjMuNTc5MiAyNC40NzE2IDIyLjQ4MTYgMjUuMDMwOUMyMS4yMzM4IDI1LjY2NjcgMTkuNjAwMyAyNS42NjY3IDE2LjMzMzMgMjUuNjY2N0gxMS42NjY3QzguMzk5NyAyNS42NjY3IDYuNzY2MjIgMjUuNjY2NyA1LjUxODQgMjUuMDMwOUM0LjQyMDc5IDI0LjQ3MTYgMy41Mjg0IDIzLjU3OTIgMi45NjkxNCAyMi40ODE2QzIuMzMzMzQgMjEuMjMzOCAyLjMzMzM0IDE5LjYwMDMgMi4zMzMzNCAxNi4zMzMzVjExLjY2NjdaTTExLjY2NjcgNC41MjA4NEgxNi4zMzMzQzE4LjAwMjkgNC41MjA4NCAxOS4xMjM2IDQuNTIyNTQgMTkuOTg2NSA0LjU5MzA1QzIwLjgyNCA0LjY2MTQ3IDIxLjIyNDQgNC43ODM2MyAyMS40ODg1IDQuOTE4MjJDMjIuMTc0NSA1LjI2Nzc1IDIyLjczMjMgNS44MjU1IDIzLjA4MTggNi41MTE1QzIzLjIxNjQgNi43NzU2NCAyMy4zMzg1IDcuMTc2MDQgMjMuNDA3IDguMDEzNDlDMjMuNDc3NSA4Ljg3NjQ3IDIzLjQ3OTIgOS45OTcwOSAyMy40NzkyIDExLjY2NjdWMTYuMzMzM0MyMy40NzkyIDE4LjAwMjkgMjMuNDc3NSAxOS4xMjM2IDIzLjQwNyAxOS45ODY1QzIzLjMzODUgMjAuODI0IDIzLjIxNjQgMjEuMjI0NCAyMy4wODE4IDIxLjQ4ODVDMjIuNzMyMyAyMi4xNzQ1IDIyLjE3NDUgMjIuNzMyMyAyMS40ODg1IDIzLjA4MThDMjEuMjI0NCAyMy4yMTY0IDIwLjgyNCAyMy4zMzg1IDE5Ljk4NjUgMjMuNDA3QzE5LjEyMzYgMjMuNDc3NSAxOC4wMDI5IDIzLjQ3OTIgMTYuMzMzMyAyMy40NzkySDExLjY2NjdDOS45OTcwOSAyMy40NzkyIDguODc2NDcgMjMuNDc3NSA4LjAxMzQ5IDIzLjQwN0M3LjE3NjA0IDIzLjMzODUgNi43NzU2NCAyMy4yMTY0IDYuNTExNSAyMy4wODE4QzUuODI1NSAyMi43MzIzIDUuMjY3NzUgMjIuMTc0NSA0LjkxODIyIDIxLjQ4ODVDNC43ODM2MyAyMS4yMjQ0IDQuNjYxNDcgMjAuODI0IDQuNTkzMDUgMTkuOTg2NUM0LjUyMjU0IDE5LjEyMzYgNC41MjA4NCAxOC4wMDI5IDQuNTIwODQgMTYuMzMzM1YxMS42NjY3QzQuNTIwODQgOS45OTcwOSA0LjUyMjU0IDguODc2NDcgNC41OTMwNSA4LjAxMzQ5QzQuNjYxNDcgNy4xNzYwNCA0Ljc4MzYzIDYuNzc1NjQgNC45MTgyMiA2LjUxMTVDNS4yNjc3NSA1LjgyNTUgNS44MjU1IDUuMjY3NzUgNi41MTE1IDQuOTE4MjJDNi43NzU2NCA0Ljc4MzYzIDcuMTc2MDQgNC42NjE0NyA4LjAxMzQ5IDQuNTkzMDVDOC44NzY0NyA0LjUyMjU0IDkuOTk3MDkgNC41MjA4NCAxMS42NjY3IDQuNTIwODRaIiBjbGlwLXJ1bGU9ImV2ZW5vZGQiIGZpbGwtcnVsZT0iZXZlbm9kZCIvPiYjeGE7PC9zdmc+;fontSize=16;fontFamily=VK Sans Display;align=center;strokeWidth=0;fontSource=https%3A%2F%2Ffonts.googleapis.com%2Fcss%3Ffamily%3DArchitects%2BDaughter;labelPosition=center;" vertex="1" parent="1">
          <mxGeometry x="-393" y="245" width="32" height="32" as="geometry" />
        </mxCell>
        <mxCell id="jCmkxCOtXwXN6SEzMLhW-26" style="edgeStyle=none;shape=connector;rounded=0;orthogonalLoop=1;jettySize=auto;html=1;entryX=0;entryY=0.5;entryDx=0;entryDy=0;labelBackgroundColor=default;strokeColor=#7C8A9A;strokeWidth=2;align=center;verticalAlign=middle;fontFamily=VK Sans Display;fontSize=11;fontColor=#212121;endArrow=open;endFill=0;" edge="1" parent="1" source="jCmkxCOtXwXN6SEzMLhW-23" target="jCmkxCOtXwXN6SEzMLhW-1">
          <mxGeometry relative="1" as="geometry" />
        </mxCell>
        <mxCell id="jCmkxCOtXwXN6SEzMLhW-27" value="SSH" style="edgeLabel;html=1;align=center;verticalAlign=middle;resizable=0;points=[];fontSize=12;fontFamily=VK Sans Display;fontColor=#212121;textOpacity=80;" vertex="1" connectable="0" parent="jCmkxCOtXwXN6SEzMLhW-26">
          <mxGeometry x="-0.2829" y="3" relative="1" as="geometry">
            <mxPoint x="-9" y="-7" as="offset" />
          </mxGeometry>
        </mxCell>
        <mxCell id="jCmkxCOtXwXN6SEzMLhW-23" value="" style="shape=image;verticalLabelPosition=bottom;labelBackgroundColor=default;verticalAlign=top;aspect=fixed;imageAspect=0;image=data:image/svg+xml,PHN2ZyB4bWxucz0iaHR0cDovL3d3dy53My5vcmcvMjAwMC9zdmciIGZpbGw9Im5vbmUiIHZpZXdCb3g9IjAgMCAyOCAyOCIgaGVpZ2h0PSIyOCIgd2lkdGg9IjI4Ij4mI3hhOzxwYXRoIGZpbGw9IiMyNjg4RUIiIGQ9Ik0xNCAzQzEwLjk2MjQgMyA4LjUgNS40NjI0MyA4LjUgOC41QzguNSAxMS41Mzc2IDEwLjk2MjQgMTQgMTQgMTRDMTcuMDM3NiAxNCAxOS41IDExLjUzNzYgMTkuNSA4LjVDMTkuNSA1LjQ2MjQzIDE3LjAzNzYgMyAxNCAzWk0xMC41IDguNUMxMC41IDYuNTY3IDEyLjA2NyA1IDE0IDVDMTUuOTMzIDUgMTcuNSA2LjU2NyAxNy41IDguNUMxNy41IDEwLjQzMyAxNS45MzMgMTIgMTQgMTJDMTIuMDY3IDEyIDEwLjUgMTAuNDMzIDEwLjUgOC41WiIgY2xpcC1ydWxlPSJldmVub2RkIiBmaWxsLXJ1bGU9ImV2ZW5vZGQiLz4mI3hhOzxwYXRoIGZpbGw9IiMyNjg4RUIiIGQ9Ik00LjUgMjEuOTc0OEM0LjUgMTcuODY2MyA4LjkxNTExIDE1LjUgMTQgMTUuNUMxOS4wODQ5IDE1LjUgMjMuNSAxNy44NjYzIDIzLjUgMjEuOTc0OEMyMy41IDI0LjEwOTggMjIuNjk3OCAyNSAyMC45Nzc3IDI1SDcuMDIyMjZDNS4zMDIyMiAyNSA0LjUgMjQuMTA5OCA0LjUgMjEuOTc0OFpNNi41IDIxLjk3NDhDNi41IDIwLjc1MTMgNy4xMTg0NSAxOS43MDkgOC40MTU3MSAxOC44ODQ4QzkuNzU3NjQgMTguMDMyMiAxMS43MzQ4IDE3LjUgMTQgMTcuNUMxNi4yNjUyIDE3LjUgMTguMjQyNCAxOC4wMzIyIDE5LjU4NDMgMTguODg0OEMyMC44ODE1IDE5LjcwOSAyMS41IDIwLjc1MTMgMjEuNSAyMS45NzQ4QzIxLjUgMjIuMzkyNCAyMS40NTk4IDIyLjY2NTcgMjEuNDE1IDIyLjgzNEMyMS4zOTkyIDIyLjg5MzMgMjEuMzg0MyAyMi45MzQ0IDIxLjM3MjkgMjIuOTYxMkMyMS4zMTM0IDIyLjk3NzMgMjEuMTkwNiAyMyAyMC45Nzc3IDIzSDcuMDIyMjZDNi44MDk0MSAyMyA2LjY4NjYgMjIuOTc3MyA2LjYyNzA2IDIyLjk2MTJDNi42MTU3IDIyLjkzNDQgNi42MDA3OCAyMi44OTMzIDYuNTg0OTkgMjIuODM0QzYuNTQwMjIgMjIuNjY1NyA2LjUgMjIuMzkyNCA2LjUgMjEuOTc0OFoiIGNsaXAtcnVsZT0iZXZlbm9kZCIgZmlsbC1ydWxlPSJldmVub2RkIi8+JiN4YTs8L3N2Zz4=;" vertex="1" parent="1">
          <mxGeometry x="-807" y="202" width="40" height="40" as="geometry" />
        </mxCell>
        <mxCell id="jCmkxCOtXwXN6SEzMLhW-35" value="Ready to handle&#xa;Virtual IP" style="shape=image;verticalLabelPosition=bottom;labelBackgroundColor=default;verticalAlign=top;aspect=fixed;imageAspect=0;image=data:image/svg+xml,PHN2ZyB4bWxucz0iaHR0cDovL3d3dy53My5vcmcvMjAwMC9zdmciIGZpbGw9Im5vbmUiIHZpZXdCb3g9IjAgMCAyOCAyOCIgaGVpZ2h0PSIyOCIgd2lkdGg9IjI4Ij4mI3hhOzxwYXRoIGZpbGw9IiM3QzhBOUEiIGQ9Ik05LjExNDYzIDguODk1ODRDOC41MTA1NyA4Ljg5NTg0IDguMDIwODggOS4zODU1MyA4LjAyMDg4IDkuOTg5NTlWMTguMDEwNEM4LjAyMDg4IDE4LjYxNDUgOC41MTA1NyAxOS4xMDQyIDkuMTE0NjMgMTkuMTA0MkM5LjcxODY5IDE5LjEwNDIgMTAuMjA4NCAxOC42MTQ1IDEwLjIwODQgMTguMDEwNFY5Ljk4OTU5QzEwLjIwODQgOS4zODU1MyA5LjcxODY5IDguODk1ODQgOS4xMTQ2MyA4Ljg5NTg0WiIvPiYjeGE7PHBhdGggZmlsbD0iIzdDOEE5QSIgZD0iTTE0LjA3NDEgOC44OTU4NEMxMy4yNjg3IDguODk1ODQgMTIuNjE1OCA5LjU0ODc2IDEyLjYxNTggMTAuMzU0MlYxOC4wMTA0QzEyLjYxNTggMTguNjE0NSAxMy4xMDU1IDE5LjEwNDIgMTMuNzA5NSAxOS4xMDQyQzE0LjMxMzYgMTkuMTA0MiAxNC44MDMzIDE4LjYxNDUgMTQuODAzMyAxOC4wMTA0VjE1Ljc1SDE2LjkxNzlDMTcuNDYyMyAxNS43NSAxNy45NTgxIDE1LjY2NzQgMTguNDA1NCAxNS41MDIxQzE4Ljg1MjYgMTUuMzI3MSAxOS4yMzY2IDE1LjA4ODkgMTkuNTU3NCAxNC43ODc1QzE5Ljg3ODMgMTQuNDc2NCAyMC4xMjYyIDE0LjExMTggMjAuMzAxMiAxMy42OTM4QzIwLjQ3NjIgMTMuMjc1NyAyMC41NjM3IDEyLjgxODggMjAuNTYzNyAxMi4zMjI5QzIwLjU2MzcgMTEuODI3MSAyMC40NzYyIDExLjM3MDEgMjAuMzAxMiAxMC45NTIxQzIwLjEyNjIgMTAuNTM0IDE5Ljg3ODMgMTAuMTc0MyAxOS41NTc0IDkuODcyOTNDMTkuMjM2NiA5LjU2MTgyIDE4Ljg1MjYgOS4zMjM2MiAxOC40MDU0IDkuMTU4MzRDMTcuOTU4MSA4Ljk4MzM0IDE3LjQ2MjMgOC44OTU4NCAxNi45MTc5IDguODk1ODRIMTQuMDc0MVpNMTcuODk0OSAxMy4zMjkyQzE3LjYzMjQgMTMuNTgyIDE3LjI4MjQgMTMuNzA4MyAxNi44NDQ5IDEzLjcwODNIMTQuODAzM1YxMC45Mzc1SDE2Ljg0NDlDMTcuMjgyNCAxMC45Mzc1IDE3LjYzMjQgMTEuMDY4OCAxNy44OTQ5IDExLjMzMTNDMTguMTY3MiAxMS41ODQgMTguMzAzMyAxMS45MTQ2IDE4LjMwMzMgMTIuMzIyOUMxOC4zMDMzIDEyLjczMTMgMTguMTY3MiAxMy4wNjY3IDE3Ljg5NDkgMTMuMzI5MloiIGNsaXAtcnVsZT0iZXZlbm9kZCIgZmlsbC1ydWxlPSJldmVub2RkIi8+JiN4YTs8cGF0aCBmaWxsPSIjN0M4QTlBIiBkPSJNMi4zMzMzNCAxMS42NjY3QzIuMzMzMzQgOC4zOTk3IDIuMzMzMzQgNi43NjYyMiAyLjk2OTE0IDUuNTE4NEMzLjUyODQgNC40MjA3OSA0LjQyMDc5IDMuNTI4NCA1LjUxODQgMi45NjkxNEM2Ljc2NjIyIDIuMzMzMzQgOC4zOTk3IDIuMzMzMzQgMTEuNjY2NyAyLjMzMzM0SDE2LjMzMzNDMTkuNjAwMyAyLjMzMzM0IDIxLjIzMzggMi4zMzMzNCAyMi40ODE2IDIuOTY5MTRDMjMuNTc5MiAzLjUyODQgMjQuNDcxNiA0LjQyMDc5IDI1LjAzMDkgNS41MTg0QzI1LjY2NjcgNi43NjYyMiAyNS42NjY3IDguMzk5NyAyNS42NjY3IDExLjY2NjdWMTYuMzMzM0MyNS42NjY3IDE5LjYwMDMgMjUuNjY2NyAyMS4yMzM4IDI1LjAzMDkgMjIuNDgxNkMyNC40NzE2IDIzLjU3OTIgMjMuNTc5MiAyNC40NzE2IDIyLjQ4MTYgMjUuMDMwOUMyMS4yMzM4IDI1LjY2NjcgMTkuNjAwMyAyNS42NjY3IDE2LjMzMzMgMjUuNjY2N0gxMS42NjY3QzguMzk5NyAyNS42NjY3IDYuNzY2MjIgMjUuNjY2NyA1LjUxODQgMjUuMDMwOUM0LjQyMDc5IDI0LjQ3MTYgMy41Mjg0IDIzLjU3OTIgMi45NjkxNCAyMi40ODE2QzIuMzMzMzQgMjEuMjMzOCAyLjMzMzM0IDE5LjYwMDMgMi4zMzMzNCAxNi4zMzMzVjExLjY2NjdaTTExLjY2NjcgNC41MjA4NEgxNi4zMzMzQzE4LjAwMjkgNC41MjA4NCAxOS4xMjM2IDQuNTIyNTQgMTkuOTg2NSA0LjU5MzA1QzIwLjgyNCA0LjY2MTQ3IDIxLjIyNDQgNC43ODM2MyAyMS40ODg1IDQuOTE4MjJDMjIuMTc0NSA1LjI2Nzc1IDIyLjczMjMgNS44MjU1IDIzLjA4MTggNi41MTE1QzIzLjIxNjQgNi43NzU2NCAyMy4zMzg1IDcuMTc2MDQgMjMuNDA3IDguMDEzNDlDMjMuNDc3NSA4Ljg3NjQ3IDIzLjQ3OTIgOS45OTcwOSAyMy40NzkyIDExLjY2NjdWMTYuMzMzM0MyMy40NzkyIDE4LjAwMjkgMjMuNDc3NSAxOS4xMjM2IDIzLjQwNyAxOS45ODY1QzIzLjMzODUgMjAuODI0IDIzLjIxNjQgMjEuMjI0NCAyMy4wODE4IDIxLjQ4ODVDMjIuNzMyMyAyMi4xNzQ1IDIyLjE3NDUgMjIuNzMyMyAyMS40ODg1IDIzLjA4MThDMjEuMjI0NCAyMy4yMTY0IDIwLjgyNCAyMy4zMzg1IDE5Ljk4NjUgMjMuNDA3QzE5LjEyMzYgMjMuNDc3NSAxOC4wMDI5IDIzLjQ3OTIgMTYuMzMzMyAyMy40NzkySDExLjY2NjdDOS45OTcwOSAyMy40NzkyIDguODc2NDcgMjMuNDc3NSA4LjAxMzQ5IDIzLjQwN0M3LjE3NjA0IDIzLjMzODUgNi43NzU2NCAyMy4yMTY0IDYuNTExNSAyMy4wODE4QzUuODI1NSAyMi43MzIzIDUuMjY3NzUgMjIuMTc0NSA0LjkxODIyIDIxLjQ4ODVDNC43ODM2MyAyMS4yMjQ0IDQuNjYxNDcgMjAuODI0IDQuNTkzMDUgMTkuOTg2NUM0LjUyMjU0IDE5LjEyMzYgNC41MjA4NCAxOC4wMDI5IDQuNTIwODQgMTYuMzMzM1YxMS42NjY3QzQuNTIwODQgOS45OTcwOSA0LjUyMjU0IDguODc2NDcgNC41OTMwNSA4LjAxMzQ5QzQuNjYxNDcgNy4xNzYwNCA0Ljc4MzYzIDYuNzc1NjQgNC45MTgyMiA2LjUxMTVDNS4yNjc3NSA1LjgyNTUgNS44MjU1IDUuMjY3NzUgNi41MTE1IDQuOTE4MjJDNi43NzU2NCA0Ljc4MzYzIDcuMTc2MDQgNC42NjE0NyA4LjAxMzQ5IDQuNTkzMDVDOC44NzY0NyA0LjUyMjU0IDkuOTk3MDkgNC41MjA4NCAxMS42NjY3IDQuNTIwODRaIiBjbGlwLXJ1bGU9ImV2ZW5vZGQiIGZpbGwtcnVsZT0iZXZlbm9kZCIvPiYjeGE7PC9zdmc+;fontSize=14;fontFamily=VK Sans Display;strokeWidth=0;fontSource=https%3A%2F%2Ffonts.googleapis.com%2Fcss%3Ffamily%3DArchitects%2BDaughter;fontColor=#808080;" vertex="1" parent="1">
          <mxGeometry x="-207" y="430" width="32" height="32" as="geometry" />
        </mxCell>
      </root>
    </mxGraphModel>
  </diagram>
</mxfile>
